<svg width="74" height="52" viewBox="0 0 74 52" fill="none" xmlns="http://www.w3.org/2000/svg">
<rect x="33.6289" y="0.891602" width="6.01273" height="6.01273" transform="rotate(90 33.6289 0.891602)" fill="#3C64B1" fill-opacity="0.2"/>
<rect x="24.6094" y="0.891602" width="6.01273" height="6.01273" transform="rotate(90 24.6094 0.891602)" fill="#3C64B1" fill-opacity="0.3"/>
<rect x="15.5898" y="0.891602" width="6.01273" height="6.01273" transform="rotate(90 15.5898 0.891602)" fill="#3C64B1" fill-opacity="0.5"/>
<rect x="6.57227" y="0.891602" width="6.01273" height="6.01273" transform="rotate(90 6.57227 0.891602)" fill="#3C64B1" fill-opacity="0.7"/>
<rect x="33.6289" y="9.91064" width="6.01273" height="6.01273" transform="rotate(90 33.6289 9.91064)" fill="#3C64B1" fill-opacity="0.2"/>
<rect x="24.6094" y="9.91064" width="6.01273" height="6.01273" transform="rotate(90 24.6094 9.91064)" fill="#3C64B1" fill-opacity="0.3"/>
<rect x="15.5898" y="9.91064" width="6.01273" height="6.01273" transform="rotate(90 15.5898 9.91064)" fill="#3C64B1" fill-opacity="0.5"/>
<rect x="6.57227" y="9.91064" width="6.01273" height="6.01273" transform="rotate(90 6.57227 9.91064)" fill="#3C64B1" fill-opacity="0.7"/>
<rect x="33.6289" y="18.9302" width="6.01273" height="6.01273" transform="rotate(90 33.6289 18.9302)" fill="#3C64B1" fill-opacity="0.2"/>
<rect x="24.6094" y="18.9302" width="6.01273" height="6.01273" transform="rotate(90 24.6094 18.9302)" fill="#3C64B1" fill-opacity="0.3"/>
<rect x="15.5898" y="18.9302" width="6.01273" height="6.01273" transform="rotate(90 15.5898 18.9302)" fill="#3C64B1" fill-opacity="0.5"/>
<rect x="6.57227" y="18.9302" width="6.01273" height="6.01273" transform="rotate(90 6.57227 18.9302)" fill="#3C64B1" fill-opacity="0.7"/>
<rect x="33.6289" y="27.9487" width="6.01273" height="6.01273" transform="rotate(90 33.6289 27.9487)" fill="#3C64B1" fill-opacity="0.2"/>
<rect x="24.6094" y="27.9487" width="6.01273" height="6.01273" transform="rotate(90 24.6094 27.9487)" fill="#3C64B1" fill-opacity="0.3"/>
<rect x="15.5898" y="27.9487" width="6.01273" height="6.01273" transform="rotate(90 15.5898 27.9487)" fill="#3C64B1" fill-opacity="0.5"/>
<rect x="6.57227" y="27.9487" width="6.01273" height="6.01273" transform="rotate(90 6.57227 27.9487)" fill="#3C64B1" fill-opacity="0.7"/>
<rect x="33.6289" y="36.9683" width="6.01273" height="6.01273" transform="rotate(90 33.6289 36.9683)" fill="#3C64B1" fill-opacity="0.2"/>
<rect x="24.6094" y="36.9683" width="6.01273" height="6.01273" transform="rotate(90 24.6094 36.9683)" fill="#3C64B1" fill-opacity="0.3"/>
<rect x="15.5898" y="36.9683" width="6.01273" height="6.01273" transform="rotate(90 15.5898 36.9683)" fill="#3C64B1" fill-opacity="0.5"/>
<rect x="6.57227" y="36.9683" width="6.01273" height="6.01273" transform="rotate(90 6.57227 36.9683)" fill="#3C64B1" fill-opacity="0.7"/>
<rect x="33.6289" y="45.9873" width="6.01273" height="6.01273" transform="rotate(90 33.6289 45.9873)" fill="#3C64B1" fill-opacity="0.2"/>
<rect x="24.6094" y="45.9873" width="6.01273" height="6.01273" transform="rotate(90 24.6094 45.9873)" fill="#3C64B1" fill-opacity="0.3"/>
<rect x="15.5898" y="45.9873" width="6.01273" height="6.01273" transform="rotate(90 15.5898 45.9873)" fill="#3C64B1" fill-opacity="0.5"/>
<rect x="6.57227" y="45.9873" width="6.01273" height="6.01273" transform="rotate(90 6.57227 45.9873)" fill="#3C64B1" fill-opacity="0.7"/>
<g clip-path="url(#clip0_727_105)">
<g clip-path="url(#clip1_727_105)">
<path d="M66.9042 30.7044H65.9743V25.2283C65.9743 22.9892 64.1143 21.1743 61.8375 21.1743H60.9797L60.9877 19.1394C60.9877 17.6309 59.737 16.4053 58.1978 16.4053H33.3931C31.5412 16.4053 30.026 17.8666 30.002 19.6815C30.002 19.6972 30.002 19.7129 30.002 19.7286V46.5513C30.002 48.0598 31.2526 49.2854 32.7919 49.2854H61.8455C64.1303 49.2854 65.9823 47.4627 65.9823 45.2314V39.7474H66.9122C68.1148 39.7474 69.0929 38.7889 69.0929 37.6104V32.8414C69.0849 31.6629 68.1068 30.7044 66.9042 30.7044ZM33.3931 18.2909H58.1978C58.6708 18.2909 59.0636 18.668 59.0636 19.1315L59.0556 21.1743H33.3931C32.5834 21.1743 31.926 20.53 31.926 19.7365C31.926 18.943 32.5834 18.2909 33.3931 18.2909ZM64.0502 45.2235C64.0502 46.4177 63.0561 47.392 61.8375 47.392H32.7839C32.3109 47.392 31.918 47.0148 31.918 46.5434V22.7299C32.367 22.942 32.864 23.0599 33.3931 23.0599H61.8375C63.0561 23.0599 64.0502 24.0341 64.0502 25.2283V30.7044H57.4842C56.2817 30.7044 55.3036 31.6629 55.3036 32.8414V37.6104C55.3036 38.7889 56.2817 39.7474 57.4842 39.7474H64.0502V45.2235ZM67.1608 37.6104C67.1608 37.7518 67.0485 37.8618 66.9042 37.8618H57.4923C57.348 37.8618 57.2357 37.7518 57.2357 37.6104V32.8414C57.2357 32.7079 57.348 32.59 57.4923 32.59H66.9042C67.0405 32.59 67.1608 32.7 67.1608 32.8414V37.6104Z" fill="#2E5193"/>
</g>
</g>
<defs>
<clipPath id="clip0_727_105">
<rect width="43" height="43" fill="white" transform="translate(30.002 9)"/>
</clipPath>
<clipPath id="clip1_727_105">
<rect width="39.0909" height="38.3091" fill="white" transform="translate(30.002 13.6909)"/>
</clipPath>
</defs>
</svg>
