<svg width="76" height="54" viewBox="0 0 76 54" fill="none" xmlns="http://www.w3.org/2000/svg">
<rect x="33.7852" y="0.891602" width="6.01273" height="6.01273" transform="rotate(90 33.7852 0.891602)" fill="#3C64B1" fill-opacity="0.2"/>
<rect x="24.7656" y="0.891602" width="6.01273" height="6.01273" transform="rotate(90 24.7656 0.891602)" fill="#3C64B1" fill-opacity="0.3"/>
<rect x="15.7461" y="0.891602" width="6.01273" height="6.01273" transform="rotate(90 15.7461 0.891602)" fill="#3C64B1" fill-opacity="0.5"/>
<rect x="6.72852" y="0.891602" width="6.01273" height="6.01273" transform="rotate(90 6.72852 0.891602)" fill="#3C64B1" fill-opacity="0.7"/>
<rect x="33.7852" y="9.91064" width="6.01273" height="6.01273" transform="rotate(90 33.7852 9.91064)" fill="#3C64B1" fill-opacity="0.2"/>
<rect x="24.7656" y="9.91064" width="6.01273" height="6.01273" transform="rotate(90 24.7656 9.91064)" fill="#3C64B1" fill-opacity="0.3"/>
<rect x="15.7461" y="9.91064" width="6.01273" height="6.01273" transform="rotate(90 15.7461 9.91064)" fill="#3C64B1" fill-opacity="0.5"/>
<rect x="6.72852" y="9.91064" width="6.01273" height="6.01273" transform="rotate(90 6.72852 9.91064)" fill="#3C64B1" fill-opacity="0.7"/>
<rect x="33.7852" y="18.9302" width="6.01273" height="6.01273" transform="rotate(90 33.7852 18.9302)" fill="#3C64B1" fill-opacity="0.2"/>
<rect x="24.7656" y="18.9302" width="6.01273" height="6.01273" transform="rotate(90 24.7656 18.9302)" fill="#3C64B1" fill-opacity="0.3"/>
<rect x="15.7461" y="18.9302" width="6.01273" height="6.01273" transform="rotate(90 15.7461 18.9302)" fill="#3C64B1" fill-opacity="0.5"/>
<rect x="6.72852" y="18.9302" width="6.01273" height="6.01273" transform="rotate(90 6.72852 18.9302)" fill="#3C64B1" fill-opacity="0.7"/>
<rect x="33.7852" y="27.9487" width="6.01273" height="6.01273" transform="rotate(90 33.7852 27.9487)" fill="#3C64B1" fill-opacity="0.2"/>
<rect x="24.7656" y="27.9487" width="6.01273" height="6.01273" transform="rotate(90 24.7656 27.9487)" fill="#3C64B1" fill-opacity="0.3"/>
<rect x="15.7461" y="27.9487" width="6.01273" height="6.01273" transform="rotate(90 15.7461 27.9487)" fill="#3C64B1" fill-opacity="0.5"/>
<rect x="6.72852" y="27.9487" width="6.01273" height="6.01273" transform="rotate(90 6.72852 27.9487)" fill="#3C64B1" fill-opacity="0.7"/>
<rect x="33.7852" y="36.9683" width="6.01273" height="6.01273" transform="rotate(90 33.7852 36.9683)" fill="#3C64B1" fill-opacity="0.2"/>
<rect x="24.7656" y="36.9683" width="6.01273" height="6.01273" transform="rotate(90 24.7656 36.9683)" fill="#3C64B1" fill-opacity="0.3"/>
<rect x="15.7461" y="36.9683" width="6.01273" height="6.01273" transform="rotate(90 15.7461 36.9683)" fill="#3C64B1" fill-opacity="0.5"/>
<rect x="6.72852" y="36.9683" width="6.01273" height="6.01273" transform="rotate(90 6.72852 36.9683)" fill="#3C64B1" fill-opacity="0.7"/>
<rect x="33.7852" y="45.9873" width="6.01273" height="6.01273" transform="rotate(90 33.7852 45.9873)" fill="#3C64B1" fill-opacity="0.2"/>
<rect x="24.7656" y="45.9873" width="6.01273" height="6.01273" transform="rotate(90 24.7656 45.9873)" fill="#3C64B1" fill-opacity="0.3"/>
<rect x="15.7461" y="45.9873" width="6.01273" height="6.01273" transform="rotate(90 15.7461 45.9873)" fill="#3C64B1" fill-opacity="0.5"/>
<rect x="6.72852" y="45.9873" width="6.01273" height="6.01273" transform="rotate(90 6.72852 45.9873)" fill="#3C64B1" fill-opacity="0.7"/>
<g clip-path="url(#clip0_727_107)">
<path d="M73.752 18.6429C73.7494 18.6429 73.7468 18.6426 73.7441 18.6426H62.3223V17.3828C62.3223 15.299 60.6268 13.6035 58.543 13.6035H48.4648C46.381 13.6035 44.6855 15.299 44.6855 17.3828V18.6426H33.2637C32.5623 18.6426 32.0039 19.2173 32.0039 19.9023V47.6172C32.0039 49.701 33.6993 51.3965 35.7832 51.3965H71.2246C73.3085 51.3965 75.0039 49.701 75.0039 47.6172V19.9289C75.0039 19.9273 75.0039 19.9256 75.0039 19.924C74.9557 19.0966 74.4469 18.6475 73.752 18.6429ZM47.2051 17.3828C47.2051 16.6883 47.7703 16.123 48.4648 16.123H58.543C59.2375 16.123 59.8027 16.6883 59.8027 17.3828V18.6426H47.2051V17.3828ZM71.9962 21.1621L68.0841 32.8983C67.9125 33.4137 67.4322 33.7598 66.8892 33.7598H59.8027V32.5C59.8027 31.8042 59.2388 31.2402 58.543 31.2402H48.4648C47.769 31.2402 47.2051 31.8042 47.2051 32.5V33.7598H40.1186C39.5756 33.7598 39.0953 33.4137 38.9238 32.8983L35.0116 21.1621H71.9962ZM57.2832 33.7598V36.2793H49.7246V33.7598H57.2832ZM72.4844 47.6172C72.4844 48.3117 71.9191 48.877 71.2246 48.877H35.7832C35.0887 48.877 34.5234 48.3117 34.5234 47.6172V27.6653L36.5335 33.6951C37.0485 35.241 38.4894 36.2793 40.1186 36.2793H47.2051V37.5391C47.2051 38.2349 47.769 38.7988 48.4648 38.7988H58.543C59.2388 38.7988 59.8027 38.2349 59.8027 37.5391V36.2793H66.8892C68.5184 36.2793 69.9593 35.241 70.4743 33.6951L72.4844 27.6653V47.6172Z" fill="#2E5193"/>
</g>
<defs>
<clipPath id="clip0_727_107">
<rect width="43" height="43" fill="white" transform="translate(32.0039 11)"/>
</clipPath>
</defs>
</svg>
