<svg width="254" height="43" viewBox="0 0 254 43" fill="none" xmlns="http://www.w3.org/2000/svg">
<path d="M59.123 5.6H71.553V8.438H62.665V11.606H66.933C68.7957 11.606 70.211 11.9947 71.179 12.772C72.1617 13.5493 72.653 14.6713 72.653 16.138C72.653 17.678 72.1103 18.8733 71.025 19.724C69.9397 20.5747 68.407 21 66.427 21H59.123V5.6ZM66.229 18.36C67.1383 18.36 67.835 18.184 68.319 17.832C68.803 17.4653 69.045 16.9373 69.045 16.248C69.045 14.8987 68.1063 14.224 66.229 14.224H62.665V18.36H66.229ZM75.3652 5.6H78.9072V15.632L86.2552 5.6H89.5992V21H86.0792V10.99L78.7312 21H75.3652V5.6ZM102.19 12.97C103.084 13.278 103.781 13.762 104.28 14.422C104.793 15.0673 105.05 15.8227 105.05 16.688C105.05 17.6267 104.742 18.4407 104.126 19.13C103.51 19.8193 102.674 20.3473 101.618 20.714C100.576 21.0807 99.4322 21.264 98.1855 21.264C97.1295 21.264 96.0735 21.132 95.0175 20.868C93.9762 20.604 92.9862 20.2007 92.0475 19.658L93.1475 17.106C93.8222 17.5167 94.5629 17.832 95.3695 18.052C96.1909 18.2573 96.9902 18.36 97.7675 18.36C98.8235 18.36 99.6962 18.1693 100.386 17.788C101.09 17.4067 101.442 16.8713 101.442 16.182C101.442 15.61 101.2 15.1773 100.716 14.884C100.246 14.5907 99.6009 14.444 98.7795 14.444H95.0175V11.76H98.5155C99.2342 11.76 99.7915 11.6133 100.188 11.32C100.598 11.0267 100.804 10.6233 100.804 10.11C100.804 9.50867 100.51 9.03933 99.9235 8.702C99.3515 8.36467 98.6109 8.196 97.7015 8.196C97.0269 8.196 96.3302 8.29133 95.6115 8.482C94.8929 8.658 94.2109 8.92933 93.5655 9.296L92.4875 6.524C94.1155 5.688 95.8755 5.27 97.7675 5.27C98.9702 5.27 100.078 5.446 101.09 5.798C102.102 6.15 102.908 6.66333 103.51 7.338C104.111 8.01267 104.412 8.79733 104.412 9.692C104.412 10.4253 104.214 11.078 103.818 11.65C103.422 12.222 102.879 12.662 102.19 12.97ZM121.995 5.6V21H118.431V14.686H111.435V21H107.871V5.6H111.435V11.672H118.431V5.6H121.995ZM137.777 18.14V21H125.853V5.6H137.491V8.46H129.395V11.804H136.545V14.576H129.395V18.14H137.777ZM147.895 21.264C146.326 21.264 144.903 20.9267 143.627 20.252C142.366 19.5627 141.369 18.6167 140.635 17.414C139.917 16.1967 139.557 14.8253 139.557 13.3C139.557 11.7747 139.917 10.4107 140.635 9.208C141.369 7.99067 142.366 7.04467 143.627 6.37C144.903 5.68067 146.333 5.336 147.917 5.336C149.252 5.336 150.455 5.57067 151.525 6.04C152.611 6.50933 153.52 7.184 154.253 8.064L151.965 10.176C150.924 8.97333 149.633 8.372 148.093 8.372C147.14 8.372 146.289 8.58467 145.541 9.01C144.793 9.42067 144.207 10 143.781 10.748C143.371 11.496 143.165 12.3467 143.165 13.3C143.165 14.2533 143.371 15.104 143.781 15.852C144.207 16.6 144.793 17.1867 145.541 17.612C146.289 18.0227 147.14 18.228 148.093 18.228C149.633 18.228 150.924 17.6193 151.965 16.402L154.253 18.514C153.52 19.4087 152.611 20.0907 151.525 20.56C150.44 21.0293 149.23 21.264 147.895 21.264ZM176.733 21L176.711 11.76L172.179 19.372H170.573L166.063 11.958V21H162.719V5.6H165.667L171.431 15.17L177.107 5.6H180.033L180.077 21H176.733ZM191.122 15.544V21H187.558V15.5L181.596 5.6H185.38L189.494 12.442L193.608 5.6H197.106L191.122 15.544ZM204.828 5.6H208.392V18.096H216.114V21H204.828V5.6ZM218.105 5.6H221.669V21H218.105V5.6ZM228.888 8.46V12.53H236.016V15.39H228.888V21H225.324V5.6H236.962V8.46H228.888ZM251.299 18.14V21H239.375V5.6H251.013V8.46H242.917V11.804H250.067V14.576H242.917V18.14H251.299Z" fill="black"/>
<path d="M64.0024 33.8635V40.262H63.1587V34.5579H60.0034V40.262H59.1553V33.8635H64.0024ZM65.6071 37.9373V37.8362C65.6071 37.4934 65.657 37.1755 65.7566 36.8826C65.8562 36.5867 65.9997 36.3303 66.1872 36.1135C66.3747 35.8938 66.6018 35.7239 66.8684 35.6038C67.135 35.4807 67.4338 35.4192 67.7649 35.4192C68.0988 35.4192 68.3991 35.4807 68.6657 35.6038C68.9353 35.7239 69.1638 35.8938 69.3513 36.1135C69.5417 36.3303 69.6867 36.5867 69.7863 36.8826C69.886 37.1755 69.9358 37.4934 69.9358 37.8362V37.9373C69.9358 38.28 69.886 38.5979 69.7863 38.8909C69.6867 39.1838 69.5417 39.4402 69.3513 39.6599C69.1638 39.8767 68.9367 40.0466 68.6701 40.1697C68.4065 40.2898 68.1076 40.3499 67.7737 40.3499C67.4397 40.3499 67.1394 40.2898 66.8728 40.1697C66.6062 40.0466 66.3777 39.8767 66.1872 39.6599C65.9997 39.4402 65.8562 39.1838 65.7566 38.8909C65.657 38.5979 65.6071 38.28 65.6071 37.9373ZM66.4201 37.8362V37.9373C66.4201 38.1746 66.448 38.3987 66.5036 38.6096C66.5593 38.8176 66.6428 39.0022 66.7541 39.1633C66.8684 39.3245 67.0105 39.4519 67.1804 39.5457C67.3503 39.6365 67.5481 39.6819 67.7737 39.6819C67.9963 39.6819 68.1911 39.6365 68.3581 39.5457C68.528 39.4519 68.6687 39.3245 68.78 39.1633C68.8913 39.0022 68.9748 38.8176 69.0305 38.6096C69.0891 38.3987 69.1184 38.1746 69.1184 37.9373V37.8362C69.1184 37.6018 69.0891 37.3806 69.0305 37.1726C68.9748 36.9617 68.8899 36.7756 68.7756 36.6145C68.6643 36.4504 68.5237 36.3215 68.3537 36.2278C68.1867 36.134 67.9904 36.0872 67.7649 36.0872C67.5422 36.0872 67.3459 36.134 67.176 36.2278C67.009 36.3215 66.8684 36.4504 66.7541 36.6145C66.6428 36.7756 66.5593 36.9617 66.5036 37.1726C66.448 37.3806 66.4201 37.6018 66.4201 37.8362ZM72.2392 38.9744L74.4321 35.5071H75.2495V40.262H74.4321V36.7947L72.2392 40.262H71.4306V35.5071H72.2392V38.9744ZM78.8625 39.6819C79.0558 39.6819 79.2345 39.6423 79.3986 39.5632C79.5627 39.4841 79.6974 39.3757 79.8029 39.238C79.9084 39.0974 79.9684 38.9377 79.9831 38.759H80.7565C80.7419 39.0403 80.6466 39.3025 80.4709 39.5457C80.298 39.7859 80.071 39.9807 79.7897 40.1301C79.5085 40.2766 79.1994 40.3499 78.8625 40.3499C78.505 40.3499 78.193 40.2869 77.9264 40.1609C77.6628 40.0349 77.443 39.8621 77.2672 39.6423C77.0944 39.4226 76.964 39.1707 76.8761 38.8865C76.7912 38.5994 76.7487 38.2961 76.7487 37.9768V37.7922C76.7487 37.4729 76.7912 37.1711 76.8761 36.887C76.964 36.5999 77.0944 36.3464 77.2672 36.1267C77.443 35.907 77.6628 35.7341 77.9264 35.6082C78.193 35.4822 78.505 35.4192 78.8625 35.4192C79.2345 35.4192 79.5597 35.4954 79.838 35.6477C80.1164 35.7971 80.3346 36.0022 80.4928 36.2629C80.654 36.5208 80.7419 36.8137 80.7565 37.1418H79.9831C79.9684 36.9456 79.9128 36.7683 79.8161 36.6101C79.7223 36.4519 79.5934 36.3259 79.4294 36.2322C79.2682 36.1355 79.0793 36.0872 78.8625 36.0872C78.6134 36.0872 78.404 36.137 78.234 36.2366C78.0671 36.3333 77.9338 36.4651 77.8341 36.6321C77.7375 36.7961 77.6671 36.9792 77.6232 37.1814C77.5822 37.3806 77.5617 37.5842 77.5617 37.7922V37.9768C77.5617 38.1848 77.5822 38.3899 77.6232 38.592C77.6642 38.7942 77.7331 38.9773 77.8297 39.1414C77.9294 39.3054 78.0627 39.4373 78.2296 39.5369C78.3996 39.6335 78.6105 39.6819 78.8625 39.6819ZM82.9589 35.5071V40.262H82.1459V35.5071H82.9589ZM86.079 35.5071L83.8246 38.2317H82.6864L82.5634 37.5198H83.495L85.0902 35.5071H86.079ZM85.2045 40.262L83.4555 38.1086L83.9784 37.5198L86.2372 40.262H85.2045ZM93.0369 33.4373H93.7049C93.7049 33.7244 93.661 33.9529 93.5731 34.1228C93.4852 34.2898 93.3651 34.4187 93.2127 34.5095C93.0633 34.6003 92.8934 34.6692 92.7029 34.7161C92.5154 34.7629 92.3206 34.8083 92.1185 34.8523C91.8665 34.905 91.6321 34.9885 91.4154 35.1028C91.2015 35.2141 91.0169 35.3723 90.8616 35.5774C90.7093 35.7825 90.5965 36.0491 90.5233 36.3772C90.4529 36.7053 90.4339 37.1111 90.4661 37.5945V37.9988H89.7982V37.5945C89.7982 37.0525 89.8494 36.5793 89.952 36.175C90.0574 35.7708 90.2054 35.4294 90.3958 35.1511C90.5863 34.8728 90.8118 34.6516 91.0726 34.4875C91.3363 34.3235 91.6263 34.2107 91.9427 34.1492C92.1712 34.1052 92.3675 34.0583 92.5316 34.0085C92.6956 33.9558 92.8201 33.8855 92.9051 33.7976C92.993 33.7097 93.0369 33.5896 93.0369 33.4373ZM92.0745 35.7795C92.3851 35.7795 92.6619 35.8337 92.9051 35.9421C93.1483 36.0505 93.3548 36.2014 93.5247 36.3948C93.6946 36.5881 93.8236 36.8167 93.9114 37.0803C94.0023 37.3411 94.0477 37.6252 94.0477 37.9329V38.0295C94.0477 38.3606 93.9993 38.6682 93.9027 38.9524C93.8089 39.2336 93.6697 39.4797 93.4852 39.6907C93.3035 39.8987 93.0809 40.0613 92.8172 40.1785C92.5565 40.2957 92.2591 40.3542 91.9251 40.3542C91.5911 40.3542 91.2923 40.2957 91.0286 40.1785C90.7679 40.0613 90.5452 39.8987 90.3607 39.6907C90.1761 39.4797 90.0355 39.2336 89.9388 38.9524C89.845 38.6682 89.7982 38.3606 89.7982 38.0295V37.9329C89.7982 37.8596 89.8113 37.7878 89.8377 37.7175C89.8641 37.6472 89.8963 37.5754 89.9344 37.5022C89.9754 37.429 90.012 37.3513 90.0443 37.2693C90.1527 37.0056 90.3006 36.761 90.4881 36.5354C90.6785 36.3098 90.9056 36.1282 91.1693 35.9905C91.4359 35.8499 91.7376 35.7795 92.0745 35.7795ZM91.9163 36.4431C91.6175 36.4431 91.3714 36.512 91.178 36.6497C90.9876 36.7874 90.8455 36.9705 90.7518 37.199C90.658 37.4246 90.6112 37.6692 90.6112 37.9329V38.0295C90.6112 38.2522 90.6375 38.4631 90.6903 38.6624C90.743 38.8616 90.8221 39.0388 90.9276 39.1941C91.036 39.3464 91.1722 39.4666 91.3363 39.5544C91.5032 39.6423 91.6995 39.6863 91.9251 39.6863C92.1507 39.6863 92.3455 39.6423 92.5096 39.5544C92.6737 39.4666 92.8084 39.3464 92.9139 39.1941C93.0194 39.0388 93.0985 38.8616 93.1512 38.6624C93.2039 38.4631 93.2303 38.2522 93.2303 38.0295V37.9329C93.2303 37.7336 93.2039 37.5447 93.1512 37.366C93.0985 37.1873 93.0179 37.0291 92.9095 36.8914C92.804 36.7537 92.6678 36.6453 92.5008 36.5662C92.3367 36.4841 92.1419 36.4431 91.9163 36.4431ZM96.1753 38.9744L98.3682 35.5071H99.1856V40.262H98.3682V36.7947L96.1753 40.262H95.3667V35.5071H96.1753V38.9744ZM102.671 37.99H101.797V37.489H102.605C102.831 37.489 103.01 37.4612 103.141 37.4055C103.273 37.3469 103.367 37.2664 103.423 37.1638C103.478 37.0613 103.506 36.9412 103.506 36.8035C103.506 36.6804 103.474 36.5647 103.409 36.4563C103.348 36.345 103.248 36.2556 103.111 36.1882C102.973 36.1179 102.788 36.0828 102.557 36.0828C102.369 36.0828 102.199 36.1165 102.047 36.1838C101.895 36.2483 101.773 36.3376 101.682 36.4519C101.594 36.5632 101.551 36.6892 101.551 36.8298H100.738C100.738 36.5398 100.82 36.2908 100.984 36.0828C101.151 35.8718 101.372 35.7092 101.647 35.595C101.926 35.4807 102.229 35.4236 102.557 35.4236C102.832 35.4236 103.078 35.4543 103.295 35.5159C103.515 35.5745 103.701 35.6624 103.853 35.7795C104.006 35.8938 104.121 36.0374 104.2 36.2102C104.282 36.3801 104.323 36.5779 104.323 36.8035C104.323 36.9646 104.285 37.1169 104.209 37.2605C104.133 37.4041 104.023 37.5315 103.88 37.6428C103.736 37.7512 103.562 37.8362 103.357 37.8977C103.155 37.9592 102.926 37.99 102.671 37.99ZM101.797 37.6824H102.671C102.955 37.6824 103.206 37.7102 103.423 37.7659C103.639 37.8186 103.821 37.8977 103.968 38.0032C104.114 38.1086 104.224 38.239 104.297 38.3943C104.373 38.5466 104.411 38.7224 104.411 38.9216C104.411 39.1443 104.366 39.345 104.275 39.5237C104.187 39.6995 104.061 39.8489 103.897 39.9719C103.733 40.095 103.537 40.1887 103.308 40.2532C103.083 40.3176 102.832 40.3499 102.557 40.3499C102.249 40.3499 101.95 40.2971 101.66 40.1917C101.37 40.0862 101.132 39.9236 100.944 39.7039C100.757 39.4812 100.663 39.1985 100.663 38.8557H101.476C101.476 38.9993 101.521 39.1355 101.612 39.2644C101.703 39.3933 101.829 39.4973 101.99 39.5764C102.154 39.6555 102.343 39.6951 102.557 39.6951C102.785 39.6951 102.976 39.6599 103.128 39.5896C103.281 39.5193 103.395 39.4255 103.471 39.3083C103.55 39.1912 103.59 39.0637 103.59 38.926C103.59 38.7473 103.554 38.6038 103.484 38.4954C103.414 38.387 103.305 38.3079 103.159 38.2581C103.015 38.2053 102.831 38.179 102.605 38.179H101.797V37.6824ZM109.097 37.5681V38.2273H106.583V37.5681H109.097ZM106.754 35.5071V40.262H105.941V35.5071H106.754ZM109.756 35.5071V40.262H108.938V35.5071H109.756ZM113.444 40.3499C113.112 40.3499 112.812 40.2942 112.543 40.1829C112.276 40.0686 112.046 39.9089 111.853 39.7039C111.662 39.4988 111.516 39.2556 111.413 38.9744C111.311 38.6931 111.259 38.3855 111.259 38.0515V37.8669C111.259 37.4802 111.317 37.136 111.431 36.8342C111.545 36.5295 111.7 36.2717 111.897 36.0608C112.093 35.8499 112.316 35.6902 112.565 35.5818C112.814 35.4734 113.071 35.4192 113.338 35.4192C113.678 35.4192 113.971 35.4778 114.217 35.595C114.466 35.7122 114.67 35.8762 114.828 36.0872C114.986 36.2952 115.103 36.5413 115.179 36.8254C115.256 37.1067 115.294 37.4143 115.294 37.7483V38.113H111.743V37.4495H114.481V37.3879C114.469 37.177 114.425 36.9719 114.349 36.7727C114.276 36.5735 114.158 36.4094 113.997 36.2805C113.836 36.1516 113.616 36.0872 113.338 36.0872C113.154 36.0872 112.984 36.1267 112.828 36.2058C112.673 36.282 112.54 36.3962 112.428 36.5486C112.317 36.7009 112.231 36.887 112.169 37.1067C112.108 37.3264 112.077 37.5798 112.077 37.8669V38.0515C112.077 38.2771 112.108 38.4895 112.169 38.6887C112.234 38.885 112.326 39.0579 112.446 39.2073C112.569 39.3567 112.717 39.4739 112.89 39.5588C113.066 39.6438 113.265 39.6863 113.487 39.6863C113.775 39.6863 114.018 39.6277 114.217 39.5105C114.416 39.3933 114.591 39.2366 114.74 39.0403L115.232 39.4314C115.13 39.5867 114.999 39.7346 114.841 39.8752C114.683 40.0159 114.488 40.1301 114.257 40.218C114.028 40.3059 113.757 40.3499 113.444 40.3499ZM118.551 39.6819C118.744 39.6819 118.923 39.6423 119.087 39.5632C119.251 39.4841 119.386 39.3757 119.491 39.238C119.597 39.0974 119.657 38.9377 119.671 38.759H120.445C120.43 39.0403 120.335 39.3025 120.159 39.5457C119.986 39.7859 119.759 39.9807 119.478 40.1301C119.197 40.2766 118.888 40.3499 118.551 40.3499C118.193 40.3499 117.881 40.2869 117.615 40.1609C117.351 40.0349 117.131 39.8621 116.955 39.6423C116.783 39.4226 116.652 39.1707 116.564 38.8865C116.479 38.5994 116.437 38.2961 116.437 37.9768V37.7922C116.437 37.4729 116.479 37.1711 116.564 36.887C116.652 36.5999 116.783 36.3464 116.955 36.1267C117.131 35.907 117.351 35.7341 117.615 35.6082C117.881 35.4822 118.193 35.4192 118.551 35.4192C118.923 35.4192 119.248 35.4954 119.526 35.6477C119.805 35.7971 120.023 36.0022 120.181 36.2629C120.342 36.5208 120.43 36.8137 120.445 37.1418H119.671C119.657 36.9456 119.601 36.7683 119.504 36.6101C119.411 36.4519 119.282 36.3259 119.118 36.2322C118.956 36.1355 118.768 36.0872 118.551 36.0872C118.302 36.0872 118.092 36.137 117.922 36.2366C117.755 36.3333 117.622 36.4651 117.522 36.6321C117.426 36.7961 117.355 36.9792 117.311 37.1814C117.27 37.3806 117.25 37.5842 117.25 37.7922V37.9768C117.25 38.1848 117.27 38.3899 117.311 38.592C117.352 38.7942 117.421 38.9773 117.518 39.1414C117.618 39.3054 117.751 39.4373 117.918 39.5369C118.088 39.6335 118.299 39.6819 118.551 39.6819ZM127.57 35.5071V36.1794H125.166V35.5071H127.57ZM125.285 35.5071V40.262H124.472V35.5071H125.285ZM128.29 35.5071V40.262H127.473V35.5071H128.29ZM132.804 39.449V37.0012C132.804 36.8137 132.766 36.6511 132.69 36.5134C132.617 36.3728 132.505 36.2644 132.356 36.1882C132.207 36.1121 132.022 36.074 131.802 36.074C131.597 36.074 131.417 36.1091 131.262 36.1794C131.109 36.2498 130.989 36.342 130.901 36.4563C130.816 36.5706 130.774 36.6936 130.774 36.8254H129.961C129.961 36.6555 130.005 36.4871 130.093 36.3201C130.181 36.1531 130.307 36.0022 130.471 35.8674C130.638 35.7297 130.837 35.6213 131.068 35.5422C131.303 35.4602 131.564 35.4192 131.851 35.4192C132.196 35.4192 132.501 35.4778 132.765 35.595C133.031 35.7122 133.239 35.8894 133.389 36.1267C133.541 36.3611 133.617 36.6555 133.617 37.01V39.2249C133.617 39.3831 133.63 39.5515 133.657 39.7302C133.686 39.9089 133.729 40.0627 133.784 40.1917V40.262H132.936C132.895 40.1682 132.863 40.0437 132.839 39.8884C132.816 39.7302 132.804 39.5837 132.804 39.449ZM132.945 37.3792L132.954 37.9504H132.132C131.9 37.9504 131.694 37.9695 131.512 38.0076C131.331 38.0427 131.178 38.0969 131.055 38.1702C130.932 38.2434 130.838 38.3357 130.774 38.447C130.71 38.5554 130.677 38.6829 130.677 38.8293C130.677 38.9788 130.711 39.115 130.778 39.238C130.846 39.3611 130.947 39.4592 131.082 39.5325C131.219 39.6028 131.388 39.6379 131.587 39.6379C131.836 39.6379 132.056 39.5852 132.246 39.4797C132.437 39.3743 132.587 39.2454 132.699 39.093C132.813 38.9407 132.875 38.7927 132.883 38.6492L133.231 39.0403C133.21 39.1633 133.154 39.2996 133.064 39.449C132.973 39.5984 132.851 39.7419 132.699 39.8796C132.549 40.0144 132.371 40.1272 132.163 40.218C131.958 40.3059 131.726 40.3499 131.468 40.3499C131.146 40.3499 130.863 40.2869 130.62 40.1609C130.38 40.0349 130.192 39.8665 130.058 39.6555C129.926 39.4417 129.86 39.2029 129.86 38.9392C129.86 38.6843 129.91 38.4602 130.009 38.2668C130.109 38.0706 130.253 37.908 130.44 37.7791C130.628 37.6472 130.853 37.5476 131.117 37.4802C131.38 37.4128 131.675 37.3792 132 37.3792H132.945ZM136.114 36.4211V42.0901H135.297V35.5071H136.044L136.114 36.4211ZM139.318 37.845V37.9373C139.318 38.283 139.277 38.6038 139.195 38.8997C139.113 39.1926 138.992 39.4475 138.834 39.6643C138.679 39.8811 138.487 40.0496 138.259 40.1697C138.03 40.2898 137.768 40.3499 137.472 40.3499C137.17 40.3499 136.904 40.3 136.672 40.2004C136.441 40.1008 136.244 39.9558 136.083 39.7654C135.922 39.575 135.793 39.3464 135.697 39.0798C135.603 38.8132 135.538 38.5129 135.503 38.179V37.6868C135.538 37.3352 135.604 37.0203 135.701 36.7419C135.798 36.4636 135.925 36.2263 136.083 36.03C136.244 35.8308 136.439 35.6799 136.668 35.5774C136.896 35.4719 137.16 35.4192 137.459 35.4192C137.758 35.4192 138.023 35.4778 138.254 35.595C138.486 35.7092 138.68 35.8733 138.839 36.0872C138.997 36.301 139.116 36.5574 139.195 36.8562C139.277 37.1521 139.318 37.4817 139.318 37.845ZM138.5 37.9373V37.845C138.5 37.6077 138.475 37.385 138.426 37.177C138.376 36.9661 138.298 36.7815 138.193 36.6233C138.09 36.4622 137.958 36.3362 137.797 36.2454C137.636 36.1516 137.444 36.1047 137.221 36.1047C137.016 36.1047 136.838 36.1399 136.685 36.2102C136.536 36.2805 136.408 36.3757 136.303 36.4958C136.198 36.613 136.111 36.7478 136.044 36.9001C135.979 37.0496 135.931 37.2048 135.899 37.366V38.5042C135.957 38.7092 136.039 38.9026 136.145 39.0842C136.25 39.2629 136.391 39.408 136.567 39.5193C136.742 39.6277 136.964 39.6819 137.23 39.6819C137.45 39.6819 137.639 39.6365 137.797 39.5457C137.958 39.4519 138.09 39.3245 138.193 39.1633C138.298 39.0022 138.376 38.8176 138.426 38.6096C138.475 38.3987 138.5 38.1746 138.5 37.9373ZM142.346 35.5071V40.262H141.529V35.5071H142.346ZM143.941 35.5071V36.1663H139.964V35.5071H143.941ZM148.372 37.5681V38.2273H145.858V37.5681H148.372ZM146.03 35.5071V40.262H145.217V35.5071H146.03ZM149.031 35.5071V40.262H148.214V35.5071H149.031ZM152.719 40.3499C152.388 40.3499 152.087 40.2942 151.818 40.1829C151.551 40.0686 151.321 39.9089 151.128 39.7039C150.937 39.4988 150.791 39.2556 150.688 38.9744C150.586 38.6931 150.535 38.3855 150.535 38.0515V37.8669C150.535 37.4802 150.592 37.136 150.706 36.8342C150.82 36.5295 150.976 36.2717 151.172 36.0608C151.368 35.8499 151.591 35.6902 151.84 35.5818C152.089 35.4734 152.347 35.4192 152.613 35.4192C152.953 35.4192 153.246 35.4778 153.492 35.595C153.741 35.7122 153.945 35.8762 154.103 36.0872C154.261 36.2952 154.378 36.5413 154.455 36.8254C154.531 37.1067 154.569 37.4143 154.569 37.7483V38.113H151.018V37.4495H153.756V37.3879C153.744 37.177 153.7 36.9719 153.624 36.7727C153.551 36.5735 153.434 36.4094 153.272 36.2805C153.111 36.1516 152.892 36.0872 152.613 36.0872C152.429 36.0872 152.259 36.1267 152.103 36.2058C151.948 36.282 151.815 36.3962 151.704 36.5486C151.592 36.7009 151.506 36.887 151.444 37.1067C151.383 37.3264 151.352 37.5798 151.352 37.8669V38.0515C151.352 38.2771 151.383 38.4895 151.444 38.6887C151.509 38.885 151.601 39.0579 151.721 39.2073C151.844 39.3567 151.992 39.4739 152.165 39.5588C152.341 39.6438 152.54 39.6863 152.763 39.6863C153.05 39.6863 153.293 39.6277 153.492 39.5105C153.691 39.3933 153.866 39.2366 154.015 39.0403L154.507 39.4314C154.405 39.5867 154.274 39.7346 154.116 39.8752C153.958 40.0159 153.763 40.1301 153.532 40.218C153.303 40.3059 153.032 40.3499 152.719 40.3499ZM151.194 34.2371C151.194 34.1052 151.235 33.9939 151.317 33.9031C151.399 33.8123 151.518 33.7668 151.673 33.7668C151.831 33.7668 151.951 33.8123 152.033 33.9031C152.115 33.9939 152.156 34.1052 152.156 34.2371C152.156 34.363 152.115 34.4714 152.033 34.5623C151.951 34.6501 151.831 34.6941 151.673 34.6941C151.518 34.6941 151.399 34.6501 151.317 34.5623C151.235 34.4714 151.194 34.363 151.194 34.2371ZM153.088 34.2458C153.088 34.114 153.127 34.0027 153.207 33.9119C153.289 33.821 153.409 33.7756 153.567 33.7756C153.722 33.7756 153.841 33.821 153.923 33.9119C154.008 34.0027 154.05 34.114 154.05 34.2458C154.05 34.3718 154.008 34.4802 153.923 34.571C153.841 34.6589 153.722 34.7029 153.567 34.7029C153.409 34.7029 153.289 34.6589 153.207 34.571C153.127 34.4802 153.088 34.3718 153.088 34.2458ZM156.736 36.4211V42.0901H155.919V35.5071H156.666L156.736 36.4211ZM159.94 37.845V37.9373C159.94 38.283 159.899 38.6038 159.817 38.8997C159.735 39.1926 159.614 39.4475 159.456 39.6643C159.301 39.8811 159.109 40.0496 158.881 40.1697C158.652 40.2898 158.39 40.3499 158.094 40.3499C157.792 40.3499 157.526 40.3 157.294 40.2004C157.063 40.1008 156.866 39.9558 156.705 39.7654C156.544 39.575 156.415 39.3464 156.319 39.0798C156.225 38.8132 156.16 38.5129 156.125 38.179V37.6868C156.16 37.3352 156.226 37.0203 156.323 36.7419C156.42 36.4636 156.547 36.2263 156.705 36.03C156.866 35.8308 157.061 35.6799 157.29 35.5774C157.518 35.4719 157.782 35.4192 158.081 35.4192C158.38 35.4192 158.645 35.4778 158.876 35.595C159.108 35.7092 159.302 35.8733 159.461 36.0872C159.619 36.301 159.737 36.5574 159.817 36.8562C159.899 37.1521 159.94 37.4817 159.94 37.845ZM159.122 37.9373V37.845C159.122 37.6077 159.097 37.385 159.048 37.177C158.998 36.9661 158.92 36.7815 158.815 36.6233C158.712 36.4622 158.58 36.3362 158.419 36.2454C158.258 36.1516 158.066 36.1047 157.843 36.1047C157.638 36.1047 157.46 36.1399 157.307 36.2102C157.158 36.2805 157.03 36.3757 156.925 36.4958C156.82 36.613 156.733 36.7478 156.666 36.9001C156.601 37.0496 156.553 37.2048 156.521 37.366V38.5042C156.579 38.7092 156.661 38.9026 156.767 39.0842C156.872 39.2629 157.013 39.408 157.189 39.5193C157.364 39.6277 157.586 39.6819 157.852 39.6819C158.072 39.6819 158.261 39.6365 158.419 39.5457C158.58 39.4519 158.712 39.3245 158.815 39.1633C158.92 39.0022 158.998 38.8176 159.048 38.6096C159.097 38.3987 159.122 38.1746 159.122 37.9373ZM161.166 37.9373V37.8362C161.166 37.4934 161.216 37.1755 161.316 36.8826C161.415 36.5867 161.559 36.3303 161.746 36.1135C161.934 35.8938 162.161 35.7239 162.428 35.6038C162.694 35.4807 162.993 35.4192 163.324 35.4192C163.658 35.4192 163.958 35.4807 164.225 35.6038C164.495 35.7239 164.723 35.8938 164.911 36.1135C165.101 36.3303 165.246 36.5867 165.346 36.8826C165.445 37.1755 165.495 37.4934 165.495 37.8362V37.9373C165.495 38.28 165.445 38.5979 165.346 38.8909C165.246 39.1838 165.101 39.4402 164.911 39.6599C164.723 39.8767 164.496 40.0466 164.229 40.1697C163.966 40.2898 163.667 40.3499 163.333 40.3499C162.999 40.3499 162.699 40.2898 162.432 40.1697C162.165 40.0466 161.937 39.8767 161.746 39.6599C161.559 39.4402 161.415 39.1838 161.316 38.8909C161.216 38.5979 161.166 38.28 161.166 37.9373ZM161.979 37.8362V37.9373C161.979 38.1746 162.007 38.3987 162.063 38.6096C162.119 38.8176 162.202 39.0022 162.313 39.1633C162.428 39.3245 162.57 39.4519 162.74 39.5457C162.91 39.6365 163.107 39.6819 163.333 39.6819C163.556 39.6819 163.75 39.6365 163.917 39.5457C164.087 39.4519 164.228 39.3245 164.339 39.1633C164.451 39.0022 164.534 38.8176 164.59 38.6096C164.648 38.3987 164.678 38.1746 164.678 37.9373V37.8362C164.678 37.6018 164.648 37.3806 164.59 37.1726C164.534 36.9617 164.449 36.7756 164.335 36.6145C164.224 36.4504 164.083 36.3215 163.913 36.2278C163.746 36.134 163.55 36.0872 163.324 36.0872C163.101 36.0872 162.905 36.134 162.735 36.2278C162.568 36.3215 162.428 36.4504 162.313 36.6145C162.202 36.7756 162.119 36.9617 162.063 37.1726C162.007 37.3806 161.979 37.6018 161.979 37.8362ZM169.152 38.1702H167.592L167.583 37.5198H168.858C169.109 37.5198 169.319 37.4949 169.486 37.4451C169.656 37.3953 169.783 37.3206 169.868 37.2209C169.953 37.1213 169.996 36.9983 169.996 36.8518C169.996 36.7375 169.971 36.6379 169.921 36.553C169.874 36.4651 169.802 36.3933 169.706 36.3376C169.609 36.2791 169.489 36.2366 169.345 36.2102C169.205 36.1809 169.039 36.1663 168.849 36.1663H167.807V40.262H166.994V35.5071H168.849C169.151 35.5071 169.422 35.5334 169.662 35.5862C169.905 35.6389 170.111 35.7195 170.281 35.8279C170.454 35.9333 170.586 36.0681 170.677 36.2322C170.768 36.3962 170.813 36.5896 170.813 36.8123C170.813 36.9558 170.784 37.092 170.725 37.2209C170.667 37.3499 170.58 37.4641 170.466 37.5637C170.352 37.6633 170.211 37.7454 170.044 37.8098C169.877 37.8713 169.685 37.9109 169.468 37.9285L169.152 38.1702ZM169.152 40.262H167.297L167.702 39.6028H169.152C169.378 39.6028 169.565 39.575 169.714 39.5193C169.864 39.4607 169.975 39.3787 170.048 39.2732C170.125 39.1648 170.163 39.0359 170.163 38.8865C170.163 38.7371 170.125 38.6096 170.048 38.5042C169.975 38.3958 169.864 38.3137 169.714 38.2581C169.565 38.1995 169.378 38.1702 169.152 38.1702H167.917L167.926 37.5198H169.468L169.763 37.7659C170.024 37.7864 170.245 37.8508 170.426 37.9592C170.608 38.0676 170.746 38.2053 170.839 38.3723C170.933 38.5364 170.98 38.7151 170.98 38.9084C170.98 39.1311 170.938 39.3274 170.853 39.4973C170.771 39.6672 170.651 39.8093 170.492 39.9236C170.334 40.0349 170.142 40.1199 169.917 40.1785C169.691 40.2341 169.436 40.262 169.152 40.262ZM175.991 38.9744L178.184 35.5071H179.002V40.262H178.184V36.7947L175.991 40.262H175.183V35.5071H175.991V38.9744ZM184.228 38.9744L186.421 35.5071H187.238V40.262H186.421V36.7947L184.228 40.262H183.419V35.5071H184.228V38.9744ZM192.174 37.5681V38.2273H189.66V37.5681H192.174ZM189.832 35.5071V40.262H189.019V35.5071H189.832ZM192.833 35.5071V40.262H192.016V35.5071H192.833ZM196.78 38.1702H195.22L195.211 37.5198H196.486C196.738 37.5198 196.947 37.4949 197.114 37.4451C197.284 37.3953 197.412 37.3206 197.497 37.2209C197.581 37.1213 197.624 36.9983 197.624 36.8518C197.624 36.7375 197.599 36.6379 197.549 36.553C197.502 36.4651 197.431 36.3933 197.334 36.3376C197.237 36.2791 197.117 36.2366 196.974 36.2102C196.833 36.1809 196.667 36.1663 196.477 36.1663H195.435V40.262H194.622V35.5071H196.477C196.779 35.5071 197.05 35.5334 197.29 35.5862C197.533 35.6389 197.74 35.7195 197.91 35.8279C198.082 35.9333 198.214 36.0681 198.305 36.2322C198.396 36.3962 198.441 36.5896 198.441 36.8123C198.441 36.9558 198.412 37.092 198.353 37.2209C198.295 37.3499 198.208 37.4641 198.094 37.5637C197.98 37.6633 197.839 37.7454 197.672 37.8098C197.505 37.8713 197.313 37.9109 197.097 37.9285L196.78 38.1702ZM196.78 40.262H194.926L195.33 39.6028H196.78C197.006 39.6028 197.193 39.575 197.343 39.5193C197.492 39.4607 197.603 39.3787 197.677 39.2732C197.753 39.1648 197.791 39.0359 197.791 38.8865C197.791 38.7371 197.753 38.6096 197.677 38.5042C197.603 38.3958 197.492 38.3137 197.343 38.2581C197.193 38.1995 197.006 38.1702 196.78 38.1702H195.545L195.554 37.5198H197.097L197.391 37.7659C197.652 37.7864 197.873 37.8508 198.055 37.9592C198.236 38.0676 198.374 38.2053 198.468 38.3723C198.561 38.5364 198.608 38.7151 198.608 38.9084C198.608 39.1311 198.566 39.3274 198.481 39.4973C198.399 39.6672 198.279 39.8093 198.121 39.9236C197.962 40.0349 197.77 40.1199 197.545 40.1785C197.319 40.2341 197.064 40.262 196.78 40.262ZM202.076 40.3499C201.745 40.3499 201.445 40.2942 201.175 40.1829C200.909 40.0686 200.679 39.9089 200.486 39.7039C200.295 39.4988 200.149 39.2556 200.046 38.9744C199.944 38.6931 199.892 38.3855 199.892 38.0515V37.8669C199.892 37.4802 199.949 37.136 200.064 36.8342C200.178 36.5295 200.333 36.2717 200.529 36.0608C200.726 35.8499 200.948 35.6902 201.197 35.5818C201.446 35.4734 201.704 35.4192 201.971 35.4192C202.311 35.4192 202.604 35.4778 202.85 35.595C203.099 35.7122 203.302 35.8762 203.461 36.0872C203.619 36.2952 203.736 36.5413 203.812 36.8254C203.888 37.1067 203.926 37.4143 203.926 37.7483V38.113H200.376V37.4495H203.113V37.3879C203.102 37.177 203.058 36.9719 202.982 36.7727C202.908 36.5735 202.791 36.4094 202.63 36.2805C202.469 36.1516 202.249 36.0872 201.971 36.0872C201.786 36.0872 201.616 36.1267 201.461 36.2058C201.306 36.282 201.173 36.3962 201.061 36.5486C200.95 36.7009 200.863 36.887 200.802 37.1067C200.74 37.3264 200.71 37.5798 200.71 37.8669V38.0515C200.71 38.2771 200.74 38.4895 200.802 38.6887C200.866 38.885 200.959 39.0579 201.079 39.2073C201.202 39.3567 201.35 39.4739 201.523 39.5588C201.698 39.6438 201.898 39.6863 202.12 39.6863C202.407 39.6863 202.651 39.6277 202.85 39.5105C203.049 39.3933 203.223 39.2366 203.373 39.0403L203.865 39.4314C203.762 39.5867 203.632 39.7346 203.474 39.8752C203.316 40.0159 203.121 40.1301 202.889 40.218C202.661 40.3059 202.39 40.3499 202.076 40.3499ZM207.183 39.6819C207.377 39.6819 207.556 39.6423 207.72 39.5632C207.884 39.4841 208.018 39.3757 208.124 39.238C208.229 39.0974 208.289 38.9377 208.304 38.759H209.078C209.063 39.0403 208.968 39.3025 208.792 39.5457C208.619 39.7859 208.392 39.9807 208.111 40.1301C207.829 40.2766 207.52 40.3499 207.183 40.3499C206.826 40.3499 206.514 40.2869 206.247 40.1609C205.984 40.0349 205.764 39.8621 205.588 39.6423C205.415 39.4226 205.285 39.1707 205.197 38.8865C205.112 38.5994 205.07 38.2961 205.07 37.9768V37.7922C205.07 37.4729 205.112 37.1711 205.197 36.887C205.285 36.5999 205.415 36.3464 205.588 36.1267C205.764 35.907 205.984 35.7341 206.247 35.6082C206.514 35.4822 206.826 35.4192 207.183 35.4192C207.556 35.4192 207.881 35.4954 208.159 35.6477C208.437 35.7971 208.656 36.0022 208.814 36.2629C208.975 36.5208 209.063 36.8137 209.078 37.1418H208.304C208.289 36.9456 208.234 36.7683 208.137 36.6101C208.043 36.4519 207.914 36.3259 207.75 36.2322C207.589 36.1355 207.4 36.0872 207.183 36.0872C206.934 36.0872 206.725 36.137 206.555 36.2366C206.388 36.3333 206.255 36.4651 206.155 36.6321C206.058 36.7961 205.988 36.9792 205.944 37.1814C205.903 37.3806 205.883 37.5842 205.883 37.7922V37.9768C205.883 38.1848 205.903 38.3899 205.944 38.592C205.985 38.7942 206.054 38.9773 206.151 39.1414C206.25 39.3054 206.384 39.4373 206.551 39.5369C206.721 39.6335 206.932 39.6819 207.183 39.6819ZM212.335 35.5071V40.262H211.517V35.5071H212.335ZM213.93 35.5071V36.1663H209.953V35.5071H213.93ZM216.013 38.9744L218.206 35.5071H219.024V40.262H218.206V36.7947L216.013 40.262H215.205V35.5071H216.013V38.9744ZM220.804 40.262V35.5071H221.617V39.594H223.806V35.5071H224.623V40.262H220.804ZM225.186 39.594L225.106 41.6726H224.381V40.262H223.762V39.594H225.186ZM227.353 38.9744L229.546 35.5071H230.363V40.262H229.546V36.7947L227.353 40.262H226.544V35.5071H227.353V38.9744ZM232.952 38.9744L235.145 35.5071H235.962V40.262H235.145V36.7947L232.952 40.262H232.144V35.5071H232.952V38.9744ZM234.701 33.7844H235.36C235.36 34.0129 235.308 34.2166 235.202 34.3953C235.097 34.571 234.946 34.7087 234.749 34.8083C234.553 34.908 234.32 34.9578 234.051 34.9578C233.644 34.9578 233.321 34.8494 233.084 34.6326C232.85 34.4128 232.732 34.1301 232.732 33.7844H233.392C233.392 33.9573 233.441 34.1096 233.541 34.2415C233.641 34.3733 233.811 34.4392 234.051 34.4392C234.285 34.4392 234.452 34.3733 234.552 34.2415C234.651 34.1096 234.701 33.9573 234.701 33.7844Z" fill="black"/>
<path d="M13.4778 6.26196H40.8581L37.0553 11.022H16.9004L7.01304 23.262L16.9004 35.502H37.0553L40.8581 40.262H13.4778L0.167969 23.262L13.4778 6.26196Z" fill="#F27F2C"/>
<path d="M54.168 6.26196H47.7032L32.1116 25.642H21.844L20.7032 23.262L21.844 21.222H29.4497L32.8722 15.782H19.5623L14.2384 23.262L19.5623 30.742H35.5342L54.168 6.26196Z" fill="#F27F2C"/>
<path d="M44.2806 27.682L40.8581 32.442L47.7032 40.262H54.168L44.2806 27.682Z" fill="#F27F2C"/>
</svg>
