<svg width="14" height="16" viewBox="0 0 14 16" fill="none" xmlns="http://www.w3.org/2000/svg">
<path d="M6.91406 11.9545V11.3793C6.91406 10.9318 7.00994 10.5181 7.2017 10.1381C7.39702 9.75817 7.67933 9.45277 8.04865 9.22195C8.41797 8.99112 8.86896 8.87571 9.40163 8.87571C9.94496 8.87571 10.4013 8.99112 10.7706 9.22195C11.1435 9.44922 11.424 9.75284 11.6122 10.1328C11.804 10.5092 11.8999 10.9247 11.8999 11.3793V11.9545C11.8999 12.402 11.804 12.8157 11.6122 13.1957C11.4205 13.5756 11.1381 13.881 10.7653 14.1119C10.3924 14.3427 9.93786 14.4581 9.40163 14.4581C8.86186 14.4581 8.40732 14.3427 8.038 14.1119C7.66868 13.881 7.38814 13.5756 7.19638 13.1957C7.00817 12.8157 6.91406 12.402 6.91406 11.9545ZM8.61328 11.3793V11.9545C8.61328 12.1818 8.66832 12.4002 8.77841 12.6097C8.89205 12.8192 9.09979 12.924 9.40163 12.924C9.71058 12.924 9.91832 12.8228 10.0249 12.6204C10.1314 12.4144 10.1847 12.1925 10.1847 11.9545V11.3793C10.1847 11.1413 10.1332 10.9176 10.0302 10.7081C9.93075 10.495 9.72124 10.3885 9.40163 10.3885C9.10334 10.3885 8.89737 10.495 8.78374 10.7081C8.6701 10.9176 8.61328 11.1413 8.61328 11.3793ZM1.2571 5.71165V5.13636C1.2571 4.68182 1.35476 4.26634 1.55007 3.88991C1.74893 3.50994 2.03303 3.20632 2.40234 2.97905C2.77166 2.74822 3.21911 2.63281 3.74467 2.63281C4.288 2.63281 4.74432 2.74822 5.11364 2.97905C5.48651 3.20632 5.76882 3.50994 5.96058 3.88991C6.15234 4.26634 6.24822 4.68182 6.24822 5.13636V5.71165C6.24822 6.16619 6.15057 6.58168 5.95526 6.9581C5.76349 7.33452 5.48118 7.63459 5.10831 7.85831C4.73544 8.08203 4.2809 8.19389 3.74467 8.19389C3.20845 8.19389 2.75391 8.08026 2.38104 7.85298C2.01172 7.62571 1.73118 7.32386 1.53942 6.94744C1.35121 6.57102 1.2571 6.15909 1.2571 5.71165ZM2.9723 5.13636V5.71165C2.9723 5.94957 3.02734 6.17152 3.13743 6.37749C3.25107 6.5799 3.45348 6.68111 3.74467 6.68111C4.05717 6.68111 4.26491 6.5799 4.3679 6.37749C4.47443 6.17152 4.5277 5.94957 4.5277 5.71165V5.13636C4.5277 4.89844 4.47798 4.67472 4.37855 4.4652C4.27912 4.25213 4.06783 4.1456 3.74467 4.1456C3.44638 4.1456 3.24219 4.25391 3.1321 4.47053C3.02557 4.68714 2.9723 4.90909 2.9723 5.13636ZM2.06143 14L9.56143 3.09091H11.0156L3.51562 14H2.06143Z" fill="black"/>
</svg>
