<svg width="277" height="43" viewBox="0 0 277 43" fill="none" xmlns="http://www.w3.org/2000/svg">
<path d="M62.5156 12.3223H63.8262C65.8743 12.3223 67.457 12.7376 68.5742 13.5684C69.6914 14.3991 70.25 15.5736 70.25 17.0918C70.25 20.3646 68.0872 22.001 63.7617 22.001H59.1855V6.2959H69.1113V9.0459H62.5156V12.3223ZM62.5156 19.2725H63.6328C64.7572 19.2725 65.5807 19.0934 66.1035 18.7354C66.6263 18.3701 66.8877 17.8223 66.8877 17.0918C66.8877 16.3685 66.6227 15.8493 66.0928 15.5342C65.5628 15.2119 64.6533 15.0508 63.3643 15.0508H62.5156V19.2725ZM73.2363 6.2959H76.2334V13.8799L76.1904 15.9102L76.083 18.2197H76.1475L83.3984 6.2959H87.3838V22.001H84.4189V14.46C84.4189 13.4502 84.4834 11.9535 84.6123 9.96973H84.5264L77.2432 22.001H73.2363V6.2959ZM102.197 9.96973C102.197 10.9795 101.839 11.8138 101.123 12.4727C100.407 13.1315 99.4365 13.5505 98.2119 13.7295V13.7939C99.6514 13.9372 100.754 14.3346 101.521 14.9863C102.294 15.638 102.681 16.4867 102.681 17.5322C102.681 18.9788 102.093 20.1211 100.919 20.959C99.7516 21.7969 98.1331 22.2158 96.0635 22.2158C93.7575 22.2158 91.9062 21.9329 90.5098 21.3672V18.5742C91.1829 18.8965 91.9707 19.1507 92.873 19.3369C93.7826 19.516 94.6312 19.6055 95.4189 19.6055C98.0615 19.6055 99.3828 18.8356 99.3828 17.2959C99.3828 16.6012 98.9567 16.0677 98.1045 15.6953C97.2594 15.3229 96.0062 15.1367 94.3447 15.1367H92.873V12.5371H94.1943C95.8558 12.5371 97.0661 12.3796 97.8252 12.0645C98.5843 11.7493 98.9639 11.2266 98.9639 10.4961C98.9639 9.95898 98.724 9.53288 98.2441 9.21777C97.7715 8.89551 97.0589 8.73438 96.1064 8.73438C94.6312 8.73438 93.2061 9.16048 91.8311 10.0127L90.3809 7.78906C91.276 7.19466 92.2249 6.76139 93.2275 6.48926C94.2301 6.20996 95.3438 6.07031 96.5684 6.07031C98.2799 6.07031 99.6442 6.42839 100.661 7.14453C101.685 7.86068 102.197 8.80241 102.197 9.96973ZM118.482 22.001H115.163V15.2227H108.943V22.001H105.613V6.2959H108.943V12.4512H115.163V6.2959H118.482V22.001ZM131.502 22.001H122.457V6.2959H131.502V9.02441H125.787V12.4727H131.104V15.2012H125.787V19.251H131.502V22.001ZM141.46 8.8418C140.207 8.8418 139.236 9.31445 138.549 10.2598C137.861 11.1979 137.518 12.5085 137.518 14.1914C137.518 17.6934 138.832 19.4443 141.46 19.4443C142.563 19.4443 143.898 19.1686 145.467 18.6172V21.4102C144.178 21.9473 142.738 22.2158 141.148 22.2158C138.864 22.2158 137.117 21.5247 135.906 20.1426C134.696 18.7533 134.091 16.7624 134.091 14.1699C134.091 12.5371 134.388 11.1084 134.982 9.88379C135.577 8.65202 136.429 7.71029 137.539 7.05859C138.656 6.39974 139.963 6.07031 141.46 6.07031C142.985 6.07031 144.518 6.43913 146.058 7.17676L144.983 9.88379C144.396 9.60449 143.805 9.361 143.211 9.15332C142.617 8.94564 142.033 8.8418 141.46 8.8418ZM170.413 22.001H166.959L166.937 11.991L163.241 20.461H160.689L156.993 11.991V22.001H153.495V6.57898H157.785L161.965 15.753L166.145 6.57898H170.413V22.001ZM181.461 17.029V22.001H177.567V17.139L171.869 6.60098H175.785L179.503 13.311L183.133 6.60098H187.049L181.461 17.029ZM197.501 18.723H204.035V22.001H193.585V6.60098H197.501V18.723ZM209.811 22.001H205.895V6.60098H209.811V22.001ZM224.317 9.68098H216.815V13.245H223.723V16.325H216.815V22.001H212.899V6.60098H224.317V9.68098ZM238.233 9.68098H230.093V12.739H237.441V15.819H230.093V18.921H238.475V22.001H226.177V6.60098H238.233V9.68098Z" fill="white"/>
<path d="M65.8804 40H64.8438V33.0283H60.9873V40H59.9561V32.1797H65.8804V40ZM67.8363 37.0405C67.8363 36.4712 67.9473 35.9591 68.1693 35.5044C68.3949 35.0496 68.7064 34.6987 69.1039 34.4517C69.5049 34.2046 69.9615 34.0811 70.4735 34.0811C71.2649 34.0811 71.904 34.355 72.391 34.9028C72.8816 35.4507 73.1268 36.1794 73.1268 37.0889V37.1587C73.1268 37.7244 73.0176 38.2329 72.7992 38.6841C72.5844 39.1317 72.2746 39.4808 71.87 39.7314C71.469 39.9821 71.007 40.1074 70.4843 40.1074C69.6965 40.1074 69.0573 39.8335 68.5668 39.2856C68.0798 38.7378 67.8363 38.0127 67.8363 37.1104V37.0405ZM68.8353 37.1587C68.8353 37.8032 68.9839 38.3206 69.2811 38.7109C69.5819 39.1012 69.983 39.2964 70.4843 39.2964C70.9891 39.2964 71.3902 39.0994 71.6874 38.7056C71.9846 38.3081 72.1332 37.7531 72.1332 37.0405C72.1332 36.4032 71.981 35.8875 71.6766 35.4937C71.3759 35.0962 70.9748 34.8975 70.4735 34.8975C69.983 34.8975 69.5873 35.0926 69.2865 35.4829C68.9857 35.8732 68.8353 36.4318 68.8353 37.1587ZM78.6277 34.1885H79.6213V40H78.6277V35.7622L75.9475 40H74.9539V34.1885H75.9475V38.4316L78.6277 34.1885ZM84.0426 39.2964C84.3971 39.2964 84.7068 39.189 84.9718 38.9741C85.2368 38.7593 85.3836 38.4907 85.4122 38.1685H86.3522C86.3343 38.5015 86.2197 38.8184 86.0084 39.1191C85.7972 39.4199 85.5143 39.6598 85.1598 39.8389C84.8089 40.0179 84.4365 40.1074 84.0426 40.1074C83.2513 40.1074 82.6211 39.8442 82.152 39.3179C81.6865 38.7879 81.4538 38.0646 81.4538 37.1479V36.9814C81.4538 36.4157 81.5576 35.9126 81.7653 35.4722C81.973 35.0317 82.2702 34.6898 82.6569 34.4463C83.0472 34.2028 83.5073 34.0811 84.0372 34.0811C84.6889 34.0811 85.2296 34.2762 85.6593 34.6665C86.0926 35.0568 86.3235 35.5635 86.3522 36.1865H85.4122C85.3836 35.8105 85.2404 35.5026 84.9826 35.2627C84.7283 35.0192 84.4132 34.8975 84.0372 34.8975C83.5324 34.8975 83.1403 35.0801 82.861 35.4453C82.5853 35.807 82.4474 36.3315 82.4474 37.019V37.207C82.4474 37.8766 82.5853 38.3923 82.861 38.7539C83.1367 39.1156 83.5306 39.2964 84.0426 39.2964ZM89.7744 37.5239H89.0493V40H88.0503V34.1885H89.0493V36.6484H89.6992L91.6543 34.1885H92.8574L90.5586 36.9814L93.0508 40H91.7886L89.7744 37.5239ZM100.175 34.5215C100.905 34.5215 101.489 34.7668 101.926 35.2573C102.366 35.7443 102.586 36.387 102.586 37.1855V37.2769C102.586 37.8247 102.481 38.3153 102.269 38.7485C102.058 39.1782 101.754 39.513 101.356 39.7529C100.962 39.9893 100.508 40.1074 99.992 40.1074C99.2114 40.1074 98.583 39.8478 98.1067 39.3286C97.6305 38.8058 97.3924 38.1058 97.3924 37.2285V36.7451C97.3924 35.5241 97.618 34.5537 98.0691 33.834C98.5239 33.1143 99.1935 32.6756 100.078 32.5181C100.579 32.4285 100.918 32.3193 101.093 32.1904C101.269 32.0615 101.356 31.8843 101.356 31.6587H102.173C102.173 32.1063 102.071 32.4554 101.866 32.7061C101.666 32.9567 101.344 33.134 100.9 33.2378L100.158 33.4043C99.5677 33.5439 99.1236 33.7803 98.8264 34.1133C98.5328 34.4427 98.3413 34.8831 98.2517 35.4346C98.7781 34.8258 99.4191 34.5215 100.175 34.5215ZM99.9812 35.3379C99.4943 35.3379 99.1075 35.5026 98.8211 35.832C98.5346 36.1579 98.3914 36.6108 98.3914 37.1909V37.2769C98.3914 37.8999 98.5346 38.394 98.8211 38.7593C99.1111 39.1209 99.5014 39.3018 99.992 39.3018C100.486 39.3018 100.876 39.1191 101.163 38.7539C101.449 38.3887 101.593 37.8551 101.593 37.1533C101.593 36.6055 101.448 36.1668 101.158 35.8374C100.871 35.5044 100.479 35.3379 99.9812 35.3379ZM107.861 34.1885H108.855V40H107.861V35.7622L105.181 40H104.188V34.1885H105.181V38.4316L107.861 34.1885ZM114.141 35.7783C114.141 35.5062 114.037 35.2913 113.83 35.1338C113.622 34.9727 113.337 34.8921 112.976 34.8921C112.625 34.8921 112.331 34.9834 112.095 35.166C111.862 35.3486 111.746 35.5635 111.746 35.8105H110.757C110.757 35.3057 110.969 34.8921 111.391 34.5698C111.814 34.2476 112.342 34.0864 112.976 34.0864C113.656 34.0864 114.186 34.2332 114.565 34.5269C114.945 34.8169 115.135 35.2323 115.135 35.7729C115.135 36.0343 115.056 36.2743 114.898 36.4927C114.741 36.7111 114.517 36.8848 114.227 37.0137C114.904 37.2428 115.242 37.694 115.242 38.3672C115.242 38.9007 115.036 39.3232 114.625 39.6348C114.213 39.9463 113.663 40.1021 112.976 40.1021C112.306 40.1021 111.753 39.9391 111.316 39.6133C110.883 39.2839 110.666 38.8398 110.666 38.2812H111.654C111.654 38.5641 111.78 38.8076 112.03 39.0117C112.285 39.2122 112.6 39.3125 112.976 39.3125C113.355 39.3125 113.661 39.2248 113.894 39.0493C114.127 38.8739 114.243 38.6465 114.243 38.3672C114.243 38.0413 114.145 37.8086 113.948 37.6689C113.754 37.5257 113.452 37.4541 113.04 37.4541H112.046V36.6162H113.126C113.803 36.5983 114.141 36.319 114.141 35.7783ZM121.774 40H120.781V37.5186H118.111V40H117.112V34.1885H118.111V36.7075H120.781V34.1885H121.774V40ZM126.282 40.1074C125.494 40.1074 124.853 39.8496 124.359 39.334C123.865 38.8148 123.617 38.1219 123.617 37.2554V37.0728C123.617 36.4963 123.727 35.9824 123.945 35.5312C124.167 35.0765 124.475 34.722 124.869 34.4678C125.266 34.21 125.696 34.0811 126.158 34.0811C126.914 34.0811 127.501 34.3299 127.92 34.8276C128.339 35.3254 128.548 36.0379 128.548 36.9653V37.3789H124.611C124.625 37.9518 124.792 38.4155 125.111 38.77C125.433 39.1209 125.841 39.2964 126.335 39.2964C126.686 39.2964 126.983 39.2248 127.227 39.0815C127.47 38.9383 127.683 38.7485 127.866 38.5122L128.473 38.9849C127.986 39.7332 127.255 40.1074 126.282 40.1074ZM126.158 34.8975C125.757 34.8975 125.42 35.0443 125.148 35.3379C124.876 35.6279 124.708 36.0361 124.643 36.5625H127.554V36.4873C127.526 35.9824 127.39 35.5921 127.146 35.3164C126.903 35.0371 126.573 34.8975 126.158 34.8975ZM132.529 39.2964C132.883 39.2964 133.193 39.189 133.458 38.9741C133.723 38.7593 133.87 38.4907 133.899 38.1685H134.839C134.821 38.5015 134.706 38.8184 134.495 39.1191C134.284 39.4199 134.001 39.6598 133.646 39.8389C133.295 40.0179 132.923 40.1074 132.529 40.1074C131.738 40.1074 131.107 39.8442 130.638 39.3179C130.173 38.7879 129.94 38.0646 129.94 37.1479V36.9814C129.94 36.4157 130.044 35.9126 130.252 35.4722C130.459 35.0317 130.757 34.6898 131.143 34.4463C131.534 34.2028 131.994 34.0811 132.524 34.0811C133.175 34.0811 133.716 34.2762 134.146 34.6665C134.579 35.0568 134.81 35.5635 134.839 36.1865H133.899C133.87 35.8105 133.727 35.5026 133.469 35.2627C133.215 35.0192 132.9 34.8975 132.524 34.8975C132.019 34.8975 131.627 35.0801 131.347 35.4453C131.072 35.807 130.934 36.3315 130.934 37.019V37.207C130.934 37.8766 131.072 38.3923 131.347 38.7539C131.623 39.1156 132.017 39.2964 132.529 39.2964ZM144.428 40H143.434V35.0103H140.759V40H139.76V34.1885H144.428V40ZM150.106 40C150.048 39.8854 150.002 39.6813 149.966 39.3877C149.504 39.8675 148.953 40.1074 148.312 40.1074C147.739 40.1074 147.268 39.9463 146.899 39.624C146.534 39.2982 146.351 38.8864 146.351 38.3887C146.351 37.7835 146.581 37.3145 147.039 36.9814C147.501 36.6449 148.149 36.4766 148.983 36.4766H149.95V36.02C149.95 35.6727 149.846 35.397 149.638 35.1929C149.431 34.9852 149.125 34.8813 148.72 34.8813C148.366 34.8813 148.068 34.9709 147.828 35.1499C147.589 35.3289 147.469 35.5456 147.469 35.7998H146.47C146.47 35.5098 146.572 35.2305 146.776 34.9619C146.983 34.6898 147.263 34.4749 147.614 34.3174C147.968 34.1598 148.357 34.0811 148.779 34.0811C149.449 34.0811 149.973 34.2493 150.353 34.5859C150.732 34.9189 150.929 35.3791 150.944 35.9663V38.6411C150.944 39.1746 151.012 39.599 151.148 39.9141V40H150.106ZM148.457 39.2427C148.768 39.2427 149.064 39.1621 149.343 39.001C149.622 38.8398 149.825 38.6304 149.95 38.3726V37.1802H149.171C147.954 37.1802 147.345 37.5365 147.345 38.249C147.345 38.5605 147.449 38.804 147.657 38.9795C147.864 39.1549 148.131 39.2427 148.457 39.2427ZM157.905 37.1587C157.905 38.0431 157.703 38.7557 157.299 39.2964C156.894 39.8371 156.346 40.1074 155.655 40.1074C154.95 40.1074 154.395 39.8836 153.99 39.436V42.2344H152.996V34.1885H153.904L153.952 34.833C154.357 34.3317 154.919 34.0811 155.639 34.0811C156.337 34.0811 156.889 34.3442 157.293 34.8706C157.701 35.397 157.905 36.1292 157.905 37.0674V37.1587ZM156.912 37.0459C156.912 36.3906 156.772 35.8732 156.493 35.4937C156.214 35.1141 155.83 34.9243 155.343 34.9243C154.742 34.9243 154.291 35.1911 153.99 35.7246V38.5015C154.287 39.0314 154.742 39.2964 155.354 39.2964C155.83 39.2964 156.208 39.1084 156.488 38.7324C156.77 38.3529 156.912 37.7907 156.912 37.0459ZM163.557 34.9941H161.607V40H160.613V34.9941H158.701V34.1885H163.557V34.9941ZM169.767 40H168.773V37.5186H166.103V40H165.104V34.1885H166.103V36.7075H168.773V34.1885H169.767V40ZM174.274 40.1074C173.486 40.1074 172.845 39.8496 172.351 39.334C171.857 38.8148 171.61 38.1219 171.61 37.2554V37.0728C171.61 36.4963 171.719 35.9824 171.937 35.5312C172.159 35.0765 172.467 34.722 172.861 34.4678C173.259 34.21 173.688 34.0811 174.15 34.0811C174.906 34.0811 175.493 34.3299 175.912 34.8276C176.331 35.3254 176.54 36.0379 176.54 36.9653V37.3789H172.603C172.618 37.9518 172.784 38.4155 173.103 38.77C173.425 39.1209 173.833 39.2964 174.327 39.2964C174.678 39.2964 174.976 39.2248 175.219 39.0815C175.463 38.9383 175.676 38.7485 175.858 38.5122L176.465 38.9849C175.978 39.7332 175.248 40.1074 174.274 40.1074ZM174.15 34.8975C173.749 34.8975 173.413 35.0443 173.14 35.3379C172.868 35.6279 172.7 36.0361 172.636 36.5625H175.547V36.4873C175.518 35.9824 175.382 35.5921 175.139 35.3164C174.895 35.0371 174.566 34.8975 174.15 34.8975ZM172.415 32.6362C172.415 32.4751 172.464 32.3408 172.56 32.2334C172.661 32.1224 172.807 32.0669 173.001 32.0669C173.194 32.0669 173.341 32.1224 173.441 32.2334C173.542 32.3408 173.592 32.4751 173.592 32.6362C173.592 32.7974 173.542 32.9316 173.441 33.0391C173.341 33.1465 173.194 33.2002 173.001 33.2002C172.807 33.2002 172.661 33.1465 172.56 33.0391C172.464 32.9316 172.415 32.7974 172.415 32.6362ZM174.725 32.647C174.725 32.4858 174.773 32.3498 174.87 32.2388C174.97 32.1278 175.117 32.0723 175.31 32.0723C175.504 32.0723 175.651 32.1278 175.751 32.2388C175.851 32.3498 175.901 32.4858 175.901 32.647C175.901 32.8081 175.851 32.9424 175.751 33.0498C175.651 33.1572 175.504 33.2109 175.31 33.2109C175.117 33.2109 174.97 33.1572 174.87 33.0498C174.773 32.9424 174.725 32.8081 174.725 32.647ZM183.099 37.1587C183.099 38.0431 182.897 38.7557 182.492 39.2964C182.088 39.8371 181.54 40.1074 180.849 40.1074C180.143 40.1074 179.588 39.8836 179.184 39.436V42.2344H178.19V34.1885H179.098L179.146 34.833C179.551 34.3317 180.113 34.0811 180.833 34.0811C181.531 34.0811 182.082 34.3442 182.487 34.8706C182.895 35.397 183.099 36.1292 183.099 37.0674V37.1587ZM182.106 37.0459C182.106 36.3906 181.966 35.8732 181.687 35.4937C181.407 35.1141 181.024 34.9243 180.537 34.9243C179.936 34.9243 179.485 35.1911 179.184 35.7246V38.5015C179.481 39.0314 179.936 39.2964 180.548 39.2964C181.024 39.2964 181.402 39.1084 181.681 38.7324C181.964 38.3529 182.106 37.7907 182.106 37.0459ZM184.599 37.0405C184.599 36.4712 184.71 35.9591 184.932 35.5044C185.157 35.0496 185.469 34.6987 185.866 34.4517C186.267 34.2046 186.724 34.0811 187.236 34.0811C188.027 34.0811 188.666 34.355 189.153 34.9028C189.644 35.4507 189.889 36.1794 189.889 37.0889V37.1587C189.889 37.7244 189.78 38.2329 189.562 38.6841C189.347 39.1317 189.037 39.4808 188.632 39.7314C188.231 39.9821 187.769 40.1074 187.247 40.1074C186.459 40.1074 185.82 39.8335 185.329 39.2856C184.842 38.7378 184.599 38.0127 184.599 37.1104V37.0405ZM185.598 37.1587C185.598 37.8032 185.746 38.3206 186.044 38.7109C186.344 39.1012 186.745 39.2964 187.247 39.2964C187.752 39.2964 188.153 39.0994 188.45 38.7056C188.747 38.3081 188.896 37.7531 188.896 37.0405C188.896 36.4032 188.743 35.8875 188.439 35.4937C188.138 35.0962 187.737 34.8975 187.236 34.8975C186.745 34.8975 186.35 35.0926 186.049 35.4829C185.748 35.8732 185.598 36.4318 185.598 37.1587ZM191.722 40V34.1885H193.988C194.762 34.1885 195.354 34.3245 195.766 34.5967C196.181 34.8652 196.389 35.2609 196.389 35.7837C196.389 36.0522 196.309 36.2957 196.147 36.5142C195.986 36.729 195.748 36.8937 195.433 37.0083C195.784 37.0907 196.065 37.2518 196.276 37.4917C196.491 37.7316 196.599 38.0181 196.599 38.3511C196.599 38.8846 196.402 39.2928 196.008 39.5757C195.617 39.8586 195.064 40 194.348 40H191.722ZM192.715 37.4487V39.1997H194.359C194.774 39.1997 195.084 39.1227 195.288 38.9688C195.496 38.8148 195.6 38.5981 195.6 38.3188C195.6 37.7388 195.173 37.4487 194.321 37.4487H192.715ZM192.715 36.6538H193.999C194.93 36.6538 195.395 36.3817 195.395 35.8374C195.395 35.2931 194.955 35.012 194.074 34.9941H192.715V36.6538ZM205.393 34.1885H206.386V40H205.393V35.7622L202.713 40H201.719V34.1885H202.713V38.4316L205.393 34.1885ZM215.46 34.1885H216.454V40H215.46V35.7622L212.78 40H211.786V34.1885H212.78V38.4316L215.46 34.1885ZM223.292 40H222.298V37.5186H219.629V40H218.63V34.1885H219.629V36.7075H222.298V34.1885H223.292V40ZM225.479 40V34.1885H227.745C228.519 34.1885 229.111 34.3245 229.523 34.5967C229.939 34.8652 230.146 35.2609 230.146 35.7837C230.146 36.0522 230.066 36.2957 229.905 36.5142C229.743 36.729 229.505 36.8937 229.19 37.0083C229.541 37.0907 229.822 37.2518 230.033 37.4917C230.248 37.7316 230.356 38.0181 230.356 38.3511C230.356 38.8846 230.159 39.2928 229.765 39.5757C229.375 39.8586 228.821 40 228.105 40H225.479ZM226.472 37.4487V39.1997H228.116C228.531 39.1997 228.841 39.1227 229.045 38.9688C229.253 38.8148 229.357 38.5981 229.357 38.3188C229.357 37.7388 228.931 37.4487 228.078 37.4487H226.472ZM226.472 36.6538H227.756C228.687 36.6538 229.153 36.3817 229.153 35.8374C229.153 35.2931 228.712 35.012 227.831 34.9941H226.472V36.6538ZM234.578 40.1074C233.791 40.1074 233.15 39.8496 232.655 39.334C232.161 38.8148 231.914 38.1219 231.914 37.2554V37.0728C231.914 36.4963 232.023 35.9824 232.242 35.5312C232.464 35.0765 232.772 34.722 233.166 34.4678C233.563 34.21 233.993 34.0811 234.455 34.0811C235.21 34.0811 235.798 34.3299 236.216 34.8276C236.635 35.3254 236.845 36.0379 236.845 36.9653V37.3789H232.908C232.922 37.9518 233.089 38.4155 233.407 38.77C233.73 39.1209 234.138 39.2964 234.632 39.2964C234.983 39.2964 235.28 39.2248 235.524 39.0815C235.767 38.9383 235.98 38.7485 236.163 38.5122L236.77 38.9849C236.283 39.7332 235.552 40.1074 234.578 40.1074ZM234.455 34.8975C234.054 34.8975 233.717 35.0443 233.445 35.3379C233.173 35.6279 233.005 36.0361 232.94 36.5625H235.851V36.4873C235.823 35.9824 235.686 35.5921 235.443 35.3164C235.2 35.0371 234.87 34.8975 234.455 34.8975ZM240.826 39.2964C241.18 39.2964 241.49 39.189 241.755 38.9741C242.02 38.7593 242.167 38.4907 242.195 38.1685H243.135C243.117 38.5015 243.003 38.8184 242.792 39.1191C242.58 39.4199 242.297 39.6598 241.943 39.8389C241.592 40.0179 241.22 40.1074 240.826 40.1074C240.034 40.1074 239.404 39.8442 238.935 39.3179C238.47 38.7879 238.237 38.0646 238.237 37.1479V36.9814C238.237 36.4157 238.341 35.9126 238.548 35.4722C238.756 35.0317 239.053 34.6898 239.44 34.4463C239.83 34.2028 240.29 34.0811 240.82 34.0811C241.472 34.0811 242.013 34.2762 242.442 34.6665C242.876 35.0568 243.107 35.5635 243.135 36.1865H242.195C242.167 35.8105 242.023 35.5026 241.766 35.2627C241.511 35.0192 241.196 34.8975 240.82 34.8975C240.315 34.8975 239.923 35.0801 239.644 35.4453C239.368 35.807 239.23 36.3315 239.23 37.019V37.207C239.23 37.8766 239.368 38.3923 239.644 38.7539C239.92 39.1156 240.314 39.2964 240.826 39.2964ZM249.066 34.9941H247.116V40H246.122V34.9941H244.21V34.1885H249.066V34.9941ZM254.287 34.1885H255.281V40H254.287V35.7622L251.607 40H250.614V34.1885H251.607V38.4316L254.287 34.1885ZM257.457 34.1885H258.456V39.189H261.131V34.1885H262.125V39.189H262.818L262.721 41.7241H261.829V40H257.457V34.1885ZM268.147 34.1885H269.14V40H268.147V35.7622L265.466 40H264.473V34.1885H265.466V38.4316L268.147 34.1885ZM274.99 34.1885H275.984V40H274.99V35.7622L272.31 40H271.316V34.1885H272.31V38.4316L274.99 34.1885ZM275.259 32.0723C275.259 32.5055 275.11 32.8547 274.813 33.1196C274.519 33.381 274.133 33.5117 273.653 33.5117C273.173 33.5117 272.784 33.3792 272.487 33.1143C272.19 32.8493 272.041 32.502 272.041 32.0723H272.852C272.852 32.3229 272.92 32.5199 273.057 32.6631C273.193 32.8027 273.391 32.8726 273.653 32.8726C273.903 32.8726 274.099 32.8027 274.238 32.6631C274.381 32.5234 274.453 32.3265 274.453 32.0723H275.259Z" fill="white"/>
<path d="M13.4778 6.2627H40.8581L37.0553 11.0227H16.9004L7.01304 23.2627L16.9004 35.5027H37.0553L40.8581 40.2627H13.4778L0.167969 23.2627L13.4778 6.2627Z" fill="#F27F2C"/>
<path d="M54.168 6.2627H47.7032L32.1116 25.6427H21.844L20.7032 23.2627L21.844 21.2227H29.4497L32.8722 15.7827H19.5623L14.2384 23.2627L19.5623 30.7427H35.5342L54.168 6.2627Z" fill="#F27F2C"/>
<path d="M44.2806 27.6827L40.8581 32.4427L47.7032 40.2627H54.168L44.2806 27.6827Z" fill="#F27F2C"/>
</svg>
