<svg width="69" height="52" viewBox="0 0 69 52" fill="none" xmlns="http://www.w3.org/2000/svg">
<rect x="33.5605" y="0.891602" width="6.01273" height="6.01273" transform="rotate(90 33.5605 0.891602)" fill="#3C64B1" fill-opacity="0.2"/>
<rect x="24.541" y="0.891602" width="6.01273" height="6.01273" transform="rotate(90 24.541 0.891602)" fill="#3C64B1" fill-opacity="0.3"/>
<rect x="15.5215" y="0.891602" width="6.01273" height="6.01273" transform="rotate(90 15.5215 0.891602)" fill="#3C64B1" fill-opacity="0.5"/>
<rect x="6.50391" y="0.891602" width="6.01273" height="6.01273" transform="rotate(90 6.50391 0.891602)" fill="#3C64B1" fill-opacity="0.7"/>
<rect x="33.5605" y="9.91064" width="6.01273" height="6.01273" transform="rotate(90 33.5605 9.91064)" fill="#3C64B1" fill-opacity="0.2"/>
<rect x="24.541" y="9.91064" width="6.01273" height="6.01273" transform="rotate(90 24.541 9.91064)" fill="#3C64B1" fill-opacity="0.3"/>
<rect x="15.5215" y="9.91064" width="6.01273" height="6.01273" transform="rotate(90 15.5215 9.91064)" fill="#3C64B1" fill-opacity="0.5"/>
<rect x="6.50391" y="9.91064" width="6.01273" height="6.01273" transform="rotate(90 6.50391 9.91064)" fill="#3C64B1" fill-opacity="0.7"/>
<rect x="33.5605" y="18.9302" width="6.01273" height="6.01273" transform="rotate(90 33.5605 18.9302)" fill="#3C64B1" fill-opacity="0.2"/>
<rect x="24.541" y="18.9302" width="6.01273" height="6.01273" transform="rotate(90 24.541 18.9302)" fill="#3C64B1" fill-opacity="0.3"/>
<rect x="15.5215" y="18.9302" width="6.01273" height="6.01273" transform="rotate(90 15.5215 18.9302)" fill="#3C64B1" fill-opacity="0.5"/>
<rect x="6.50391" y="18.9302" width="6.01273" height="6.01273" transform="rotate(90 6.50391 18.9302)" fill="#3C64B1" fill-opacity="0.7"/>
<rect x="33.5605" y="27.9487" width="6.01273" height="6.01273" transform="rotate(90 33.5605 27.9487)" fill="#3C64B1" fill-opacity="0.2"/>
<rect x="24.541" y="27.9487" width="6.01273" height="6.01273" transform="rotate(90 24.541 27.9487)" fill="#3C64B1" fill-opacity="0.3"/>
<rect x="15.5215" y="27.9487" width="6.01273" height="6.01273" transform="rotate(90 15.5215 27.9487)" fill="#3C64B1" fill-opacity="0.5"/>
<rect x="6.50391" y="27.9487" width="6.01273" height="6.01273" transform="rotate(90 6.50391 27.9487)" fill="#3C64B1" fill-opacity="0.7"/>
<rect x="33.5605" y="36.9683" width="6.01273" height="6.01273" transform="rotate(90 33.5605 36.9683)" fill="#3C64B1" fill-opacity="0.2"/>
<rect x="24.541" y="36.9683" width="6.01273" height="6.01273" transform="rotate(90 24.541 36.9683)" fill="#3C64B1" fill-opacity="0.3"/>
<rect x="15.5215" y="36.9683" width="6.01273" height="6.01273" transform="rotate(90 15.5215 36.9683)" fill="#3C64B1" fill-opacity="0.5"/>
<rect x="6.50391" y="36.9683" width="6.01273" height="6.01273" transform="rotate(90 6.50391 36.9683)" fill="#3C64B1" fill-opacity="0.7"/>
<rect x="33.5605" y="45.9873" width="6.01273" height="6.01273" transform="rotate(90 33.5605 45.9873)" fill="#3C64B1" fill-opacity="0.2"/>
<rect x="24.541" y="45.9873" width="6.01273" height="6.01273" transform="rotate(90 24.541 45.9873)" fill="#3C64B1" fill-opacity="0.3"/>
<rect x="15.5215" y="45.9873" width="6.01273" height="6.01273" transform="rotate(90 15.5215 45.9873)" fill="#3C64B1" fill-opacity="0.5"/>
<rect x="6.50391" y="45.9873" width="6.01273" height="6.01273" transform="rotate(90 6.50391 45.9873)" fill="#3C64B1" fill-opacity="0.7"/>
<g clip-path="url(#clip0_727_108)">
<path d="M68.0643 22.9476L65.3839 14.906C65.2015 14.3584 64.6891 13.9891 64.112 13.9893H34.6262C34.0491 13.9891 33.5367 14.3584 33.3544 14.906L30.6738 22.9476C30.6325 23.0728 30.6094 23.2032 30.6055 23.3349C30.6055 23.3483 30.6055 23.3577 30.6055 23.3711V24.7114C30.6103 26.8113 31.6034 28.7865 33.286 30.0429C33.286 30.0537 33.286 30.0617 33.286 30.0724V47.4958C33.286 49.7164 35.0861 51.5165 37.3067 51.5165H61.4314C63.652 51.5165 65.4522 49.7164 65.4522 47.4958V30.0724C65.4522 30.0616 65.4522 30.0536 65.4522 30.0429C67.1348 28.7865 68.1279 26.8113 68.1327 24.7114V23.3711C68.1327 23.3577 68.1327 23.3483 68.1327 23.3349C68.1287 23.2031 68.1057 23.0727 68.0643 22.9476ZM58.7509 16.6697H63.1456L64.9336 22.0308H58.7509V16.6697ZM50.7094 16.6697H56.0704V22.0308H50.7094V16.6697ZM42.6678 16.6697H48.0289V22.0308H42.6678V16.6697ZM35.5926 16.6697H39.9873V22.0308H33.8047L35.5926 16.6697ZM52.0496 48.836H46.6886V38.1139H52.0496V48.836ZM62.7717 47.4958C62.7717 48.236 62.1716 48.836 61.4314 48.836H54.7301V36.7737C54.7301 36.0335 54.1301 35.4334 53.3898 35.4334H45.3483C44.6081 35.4334 44.008 36.0335 44.008 36.7737V48.836H37.3067C36.5665 48.836 35.9665 48.236 35.9665 47.4958V31.2786C37.8473 31.6647 39.8032 31.2158 41.3275 30.0483C43.72 31.8055 46.9765 31.8055 49.3691 30.0483C51.7616 31.8055 55.0181 31.8055 57.4106 30.0483C58.9349 31.2159 60.8908 31.6647 62.7717 31.2786V47.4958ZM61.4314 28.7321C60.2724 28.7314 59.1717 28.223 58.4198 27.3409C57.9328 26.7836 57.0861 26.7266 56.5287 27.2136C56.4835 27.2531 56.4409 27.2957 56.4014 27.3409C54.9111 29.0042 52.3548 29.1444 50.6915 27.6542C50.5815 27.5555 50.4769 27.451 50.3783 27.3409C49.8538 26.7836 48.9767 26.7569 48.4193 27.2815C48.3989 27.3007 48.379 27.3205 48.3599 27.3409C46.8697 29.0042 44.3133 29.1444 42.65 27.6542C42.5399 27.5555 42.4353 27.451 42.3367 27.3409C41.8122 26.7836 40.9351 26.7569 40.3778 27.2815C40.3573 27.3007 40.3375 27.3205 40.3183 27.3409C39.5664 28.223 38.4659 28.7314 37.3067 28.7321C35.0861 28.7321 33.286 26.9319 33.286 24.7113H65.4522C65.4522 26.9319 63.652 28.7321 61.4314 28.7321Z" fill="#2E5193"/>
</g>
<defs>
<clipPath id="clip0_727_108">
<rect width="37.5273" height="37.5273" fill="white" transform="translate(30.6055 13.9893)"/>
</clipPath>
</defs>
</svg>
