<svg width="70" height="52" viewBox="0 0 70 52" fill="none" xmlns="http://www.w3.org/2000/svg">
<rect x="33.6484" y="0.891602" width="6.01273" height="6.01273" transform="rotate(90 33.6484 0.891602)" fill="#3C64B1" fill-opacity="0.2"/>
<rect x="24.6289" y="0.891602" width="6.01273" height="6.01273" transform="rotate(90 24.6289 0.891602)" fill="#3C64B1" fill-opacity="0.3"/>
<rect x="15.6094" y="0.891602" width="6.01273" height="6.01273" transform="rotate(90 15.6094 0.891602)" fill="#3C64B1" fill-opacity="0.5"/>
<rect x="6.5918" y="0.891602" width="6.01273" height="6.01273" transform="rotate(90 6.5918 0.891602)" fill="#3C64B1" fill-opacity="0.7"/>
<rect x="33.6484" y="9.91064" width="6.01273" height="6.01273" transform="rotate(90 33.6484 9.91064)" fill="#3C64B1" fill-opacity="0.2"/>
<rect x="24.6289" y="9.91064" width="6.01273" height="6.01273" transform="rotate(90 24.6289 9.91064)" fill="#3C64B1" fill-opacity="0.3"/>
<rect x="15.6094" y="9.91064" width="6.01273" height="6.01273" transform="rotate(90 15.6094 9.91064)" fill="#3C64B1" fill-opacity="0.5"/>
<rect x="6.5918" y="9.91064" width="6.01273" height="6.01273" transform="rotate(90 6.5918 9.91064)" fill="#3C64B1" fill-opacity="0.7"/>
<rect x="33.6484" y="18.9302" width="6.01273" height="6.01273" transform="rotate(90 33.6484 18.9302)" fill="#3C64B1" fill-opacity="0.2"/>
<rect x="24.6289" y="18.9302" width="6.01273" height="6.01273" transform="rotate(90 24.6289 18.9302)" fill="#3C64B1" fill-opacity="0.3"/>
<rect x="15.6094" y="18.9302" width="6.01273" height="6.01273" transform="rotate(90 15.6094 18.9302)" fill="#3C64B1" fill-opacity="0.5"/>
<rect x="6.5918" y="18.9302" width="6.01273" height="6.01273" transform="rotate(90 6.5918 18.9302)" fill="#3C64B1" fill-opacity="0.7"/>
<rect x="33.6484" y="27.9487" width="6.01273" height="6.01273" transform="rotate(90 33.6484 27.9487)" fill="#3C64B1" fill-opacity="0.2"/>
<rect x="24.6289" y="27.9487" width="6.01273" height="6.01273" transform="rotate(90 24.6289 27.9487)" fill="#3C64B1" fill-opacity="0.3"/>
<rect x="15.6094" y="27.9487" width="6.01273" height="6.01273" transform="rotate(90 15.6094 27.9487)" fill="#3C64B1" fill-opacity="0.5"/>
<rect x="6.5918" y="27.9487" width="6.01273" height="6.01273" transform="rotate(90 6.5918 27.9487)" fill="#3C64B1" fill-opacity="0.7"/>
<rect x="33.6484" y="36.9683" width="6.01273" height="6.01273" transform="rotate(90 33.6484 36.9683)" fill="#3C64B1" fill-opacity="0.2"/>
<rect x="24.6289" y="36.9683" width="6.01273" height="6.01273" transform="rotate(90 24.6289 36.9683)" fill="#3C64B1" fill-opacity="0.3"/>
<rect x="15.6094" y="36.9683" width="6.01273" height="6.01273" transform="rotate(90 15.6094 36.9683)" fill="#3C64B1" fill-opacity="0.5"/>
<rect x="6.5918" y="36.9683" width="6.01273" height="6.01273" transform="rotate(90 6.5918 36.9683)" fill="#3C64B1" fill-opacity="0.7"/>
<rect x="33.6484" y="45.9873" width="6.01273" height="6.01273" transform="rotate(90 33.6484 45.9873)" fill="#3C64B1" fill-opacity="0.2"/>
<rect x="24.6289" y="45.9873" width="6.01273" height="6.01273" transform="rotate(90 24.6289 45.9873)" fill="#3C64B1" fill-opacity="0.3"/>
<rect x="15.6094" y="45.9873" width="6.01273" height="6.01273" transform="rotate(90 15.6094 45.9873)" fill="#3C64B1" fill-opacity="0.5"/>
<rect x="6.5918" y="45.9873" width="6.01273" height="6.01273" transform="rotate(90 6.5918 45.9873)" fill="#3C64B1" fill-opacity="0.7"/>
<path d="M39.3226 24.7553C39.3226 24.1285 38.821 23.6157 38.2079 23.6157H29.271C28.6579 23.6157 28.1562 24.1285 28.1562 24.7553C28.1562 25.382 28.6579 25.8948 29.271 25.8948H38.2079C38.821 25.8948 39.3226 25.382 39.3226 24.7553Z" fill="#2E5193"/>
<path d="M63.7372 23.6157H54.8003C54.1872 23.6157 53.6855 24.1285 53.6855 24.7553C53.6855 25.382 54.1872 25.8948 54.8003 25.8948H63.7372C64.3503 25.8948 64.8519 25.382 64.8519 24.7553C64.8519 24.1285 64.3596 23.6157 63.7372 23.6157Z" fill="#2E5193"/>
<path d="M46.5035 17.4145C47.1166 17.4145 47.6182 16.9017 47.6182 16.275V7.13955C47.6182 6.5128 47.1166 6 46.5035 6C45.8903 6 45.3887 6.5128 45.3887 7.13955V16.275C45.3887 16.9017 45.8903 17.4145 46.5035 17.4145Z" fill="#2E5193"/>
<path d="M52.3652 19.9027C52.6531 19.9027 52.9318 19.7888 53.1548 19.5704L59.4812 13.1034C59.9178 12.6571 59.9178 11.9354 59.4812 11.489C59.0446 11.0427 58.3385 11.0427 57.9019 11.489L51.5755 17.956C51.1389 18.4023 51.1389 19.124 51.5755 19.5704C51.7985 19.7888 52.0865 19.9027 52.3652 19.9027Z" fill="#2E5193"/>
<path d="M39.8531 19.5704C40.0667 19.7888 40.3547 19.9027 40.6427 19.9027C40.9307 19.9027 41.2094 19.7888 41.4323 19.5704C41.869 19.124 41.869 18.4023 41.4323 17.956L35.106 11.489C34.6693 11.0427 33.9633 11.0427 33.5267 11.489C33.0901 11.9354 33.0901 12.6571 33.5267 13.1034L39.8531 19.5704Z" fill="#2E5193"/>
<path d="M59.9 31.9436C59.0546 31.2029 57.9863 30.7946 56.8994 30.7946H55.8868H52.2452H50.5173V26.1889C50.5173 23.9858 49.8763 22.3809 48.6036 21.4218C46.597 19.9213 43.875 20.7665 43.7543 20.8045C43.2898 20.9564 42.9739 21.3933 42.9739 21.8871V27.4424C42.9739 29.1327 42.1843 30.5667 40.6143 31.7157C39.4252 32.5894 38.2082 32.9882 38.0503 33.0357L37.9388 33.0642C37.5208 32.5799 36.9077 32.276 36.2202 32.276H31.984C30.7206 32.276 29.6895 33.3301 29.6895 34.6216V48.828C29.6895 50.1195 30.7206 51.1736 31.984 51.1736H36.2388C36.7962 51.1736 37.3164 50.9647 37.7066 50.6228C38.5613 51.4775 39.7225 51.9998 40.9766 51.9998H45.2035H45.6401H54.289C55.6267 51.9998 56.8065 51.6674 57.7076 51.0502C58.8596 50.2525 59.5749 48.9895 59.7793 47.3751L61.4979 36.4544C61.7673 34.764 61.1542 33.0357 59.9 31.9436ZM36.3038 48.828C36.3038 48.866 36.276 48.8945 36.2388 48.8945H31.984C31.9469 48.8945 31.919 48.866 31.919 48.828V34.6216C31.919 34.5836 31.9469 34.5551 31.984 34.5551H36.2388C36.276 34.5551 36.3038 34.5836 36.3038 34.6216V48.828ZM59.2962 36.103L57.5776 47.0427C57.5776 47.0522 57.5776 47.0712 57.5683 47.0902C57.4939 47.7455 57.2524 49.7302 54.289 49.7302H45.6401H45.2035H40.9766C39.7875 49.7302 38.7471 48.8185 38.5613 47.6125C38.552 47.565 38.5427 47.5175 38.5334 47.4796V35.2673L38.5984 35.2483C38.617 35.2483 38.6263 35.2388 38.6449 35.2388C38.7099 35.2199 40.2892 34.764 41.8591 33.615C44.0423 32.0291 45.2035 29.8924 45.2035 27.4424V22.8272C45.8166 22.7607 46.662 22.7892 47.2844 23.2545C47.9533 23.7578 48.2877 24.7455 48.2877 26.1794V31.9246C48.2877 32.5514 48.7894 33.0642 49.4025 33.0642H52.2452H55.8868H56.8994C57.4568 33.0642 58.0049 33.2826 58.4508 33.6625C59.1197 34.2512 59.4355 35.1819 59.2962 36.103Z" fill="#2E5193"/>
</svg>
