<svg width="19" height="19" viewBox="0 0 19 19" fill="none" xmlns="http://www.w3.org/2000/svg">
<g clip-path="url(#clip0_2_96)">
<path d="M9.0892 4.37993C6.53695 4.37993 4.4707 6.44843 4.4707 8.99843C4.4707 11.5507 6.5392 13.6169 9.0892 13.6169C11.6414 13.6169 13.7077 11.5484 13.7077 8.99843C13.7077 6.44618 11.6392 4.37993 9.0892 4.37993ZM9.0892 11.9962C7.43245 11.9962 6.09145 10.6544 6.09145 8.99843C6.09145 7.34243 7.4332 6.00068 9.0892 6.00068C10.7452 6.00068 12.0869 7.34243 12.0869 8.99843C12.0877 10.6544 10.7459 11.9962 9.0892 11.9962Z" fill="white"/>
<path d="M12.7971 0.0591187C11.1411 -0.0181313 7.03936 -0.0143813 5.38186 0.0591187C3.92536 0.127369 2.64061 0.479119 1.60486 1.51487C-0.126142 3.24587 0.0951079 5.57837 0.0951079 8.99912C0.0951079 12.5001 -0.099892 14.7786 1.60486 16.4834C3.34261 18.2204 5.70886 17.9931 9.08911 17.9931C12.5571 17.9931 13.7541 17.9954 14.9804 17.5206C16.6476 16.8734 17.9061 15.3831 18.0291 12.7064C18.1071 11.0496 18.1026 6.94862 18.0291 5.29112C17.8806 2.13137 16.1849 0.215119 12.7971 0.0591187ZM15.4184 15.3381C14.2836 16.4729 12.7094 16.3716 9.06736 16.3716C5.31736 16.3716 3.81361 16.4271 2.71636 15.3269C1.45261 14.0691 1.68136 12.0494 1.68136 8.98712C1.68136 4.84337 1.25611 1.85912 5.41486 1.64612C6.37036 1.61237 6.65161 1.60112 9.05686 1.60112L9.09061 1.62362C13.0874 1.62362 16.2231 1.20512 16.4114 5.36312C16.4541 6.31187 16.4639 6.59687 16.4639 8.99837C16.4631 12.7049 16.5336 14.2176 15.4184 15.3381Z" fill="white"/>
<path d="M13.8898 5.27698C14.4859 5.27698 14.969 4.79378 14.969 4.19773C14.969 3.60168 14.4859 3.11848 13.8898 3.11848C13.2937 3.11848 12.8105 3.60168 12.8105 4.19773C12.8105 4.79378 13.2937 5.27698 13.8898 5.27698Z" fill="white"/>
</g>
<defs>
<clipPath id="clip0_2_96">
<rect width="18" height="18" fill="white" transform="translate(0.0859375 0.00146484)"/>
</clipPath>
</defs>
</svg>
