<svg width="19" height="19" viewBox="0 0 19 19" fill="none" xmlns="http://www.w3.org/2000/svg">
<g clip-path="url(#clip0_2_94)">
<path d="M14.9792 10.153C14.6882 9.78549 14.7715 9.62199 14.9792 9.29349C14.983 9.28974 17.3852 5.97024 17.6327 4.84449L17.6342 4.84374C17.7572 4.43349 17.6342 4.13199 17.0395 4.13199H15.0715C14.5705 4.13199 14.3395 4.39074 14.2157 4.68024C14.2157 4.68024 13.2137 7.07874 11.7962 8.63349C11.3387 9.08274 11.1272 9.22674 10.8775 9.22674C10.7545 9.22674 10.5632 9.08274 10.5632 8.67249V4.84374C10.5632 4.35174 10.423 4.13199 10.0082 4.13199H6.91372C6.59947 4.13199 6.41272 4.36149 6.41272 4.57524C6.41272 5.04174 7.12147 5.14899 7.19497 6.46149V9.30924C7.19497 9.93324 7.08172 10.048 6.83047 10.048C6.16147 10.048 4.53772 7.63974 3.57547 4.88349C3.38122 4.34874 3.19147 4.13274 2.68672 4.13274H0.717969C0.156219 4.13274 0.0429688 4.39149 0.0429688 4.68099C0.0429688 5.19249 0.711969 7.73574 3.15397 11.0957C4.78147 13.3892 7.07347 14.632 9.15847 14.632C10.4117 14.632 10.5647 14.356 10.5647 13.8812C10.5647 11.6897 10.4515 11.4827 11.0792 11.4827C11.3702 11.4827 11.8712 11.6267 13.0412 12.733C14.3785 14.0447 14.5982 14.632 15.3467 14.632H17.3147C17.8757 14.632 18.16 14.356 17.9965 13.8115C17.6222 12.6662 15.0932 10.3105 14.9792 10.153Z" fill="white"/>
</g>
<defs>
<clipPath id="clip0_2_94">
<rect width="18" height="18" fill="white" transform="translate(0.0429688 0.381836)"/>
</clipPath>
</defs>
</svg>
