<svg width="12" height="13" viewBox="0 0 12 13" fill="none" xmlns="http://www.w3.org/2000/svg">
<path d="M7.03125 8.22754H0.37793V6.47852H6.9873C7.5791 6.47852 8.05664 6.3877 8.41992 6.20605C8.7832 6.01855 9.0498 5.75781 9.21973 5.42383C9.38965 5.08984 9.47461 4.7002 9.47461 4.25488C9.47461 3.85645 9.38965 3.48437 9.21973 3.13867C9.0498 2.79297 8.78613 2.51172 8.42871 2.29492C8.07129 2.07227 7.60547 1.96094 7.03125 1.96094H4.37695V13H2.1709V0.203125H7.03125C8.01562 0.203125 8.85352 0.375977 9.54492 0.72168C10.2363 1.06738 10.7666 1.54492 11.1357 2.1543C11.5049 2.75781 11.6895 3.45215 11.6895 4.2373C11.6895 5.0752 11.502 5.79297 11.127 6.39062C10.7578 6.98242 10.2246 7.43652 9.52734 7.75293C8.83594 8.06934 8.00391 8.22754 7.03125 8.22754ZM7.24219 9.16797V10.917H0.37793V9.16797H7.24219Z" fill="#262626"/>
</svg>
